<svg height="300px" width="300px" fill="#000000" xmlns="http://www.w3.org/2000/svg" xmlns:xlink="http://www.w3.org/1999/xlink" version="1.1" x="0px" y="0px" viewBox="0 0 100 100" style="enable-background:new 0 0 100 100;" xml:space="preserve"><style type="text/css">
	.st0{fill:#000000;}
</style><path class="st0" d="M70,32.4c0,1.9,0,9.2,0,10.8c0,1.2-0.8,4.2-2.3,5.8c0.9-1.6,1.3-3.6,1.3-4.5c0-1.6,0-8.9,0-10.8  c0-1.3-0.9-2.9-1.8-3.5c-2.3-1.6-6.3-4-15.1-3.1c0,0-0.8,0-1.6,0.5c0.4-1.8,2.5-1.8,2.5-1.8c8.8-0.9,12.8,1.5,15.1,3.1  C69.2,29.6,70,31.1,70,32.4z M16.6,32.4c0,1.9,0,9.2,0,10.8c0,1.2,0.8,4.2,2.3,5.8c-0.9-1.6-1.3-3.6-1.3-4.5c0-1.6,0-8.9,0-10.8  c0-1.3,0.9-2.9,1.8-3.5c2.3-1.6,6.3-4,15.1-3.1c0,0,0.8,0,1.6,0.5c-0.4-1.8-2.5-1.8-2.5-1.8c-8.8-0.9-12.8,1.5-15.1,3.1  C17.5,29.6,16.6,31.1,16.6,32.4z M51.4,22.9c11-1.2,16,1.9,18.9,3.9c1.1,0.8,2.2,2.7,2.2,4.4c0,2.4,0,11.5,0,13.5s-1.9,8.6-5.4,8.6  s-3.9-0.3-6.2-1.9c-2.4-1.5-11.1-13.8-11.6-14.7c-0.5-0.8-1-3-1-5.6V26C48.2,23,51.4,22.9,51.4,22.9z M49.9,32.2  c0,2.2,0.4,4.1,0.9,4.8c0.4,0.7,8,11.3,10,12.6s2.3,1.6,5.4,1.6c3,0,4.6-5.7,4.6-7.4s0-9.6,0-11.6c0-1.4-0.9-3.1-1.9-3.8  c-2.5-1.7-6.8-4.4-16.2-3.3c0,0-2.8,0.1-2.8,2.7V32.2z M38.5,26v5.1c0,2.5-0.5,4.7-1,5.6c-0.5,0.8-9.3,13.2-11.6,14.7  c-2.4,1.5-2.7,1.9-6.2,1.9s-5.4-6.6-5.4-8.6s0-11.1,0-13.5c0-1.7,1.1-3.6,2.2-4.4c2.9-2,7.9-5.1,18.9-3.9C35.3,22.9,38.5,23,38.5,26  z M36.8,27.7c0-2.6-2.8-2.7-2.8-2.7c-9.4-1-13.7,1.6-16.2,3.3c-1,0.7-1.9,2.3-1.9,3.8c0,2,0,9.9,0,11.6c0,1.7,1.6,7.4,4.6,7.4  s3.3-0.3,5.4-1.6c2-1.3,9.6-11.9,10-12.6c0.4-0.7,0.9-2.6,0.9-4.8C36.8,32.1,36.8,27.7,36.8,27.7z M58.7,66.8  c0,8.5-6.9,15.4-15.4,15.4s-15.4-6.9-15.4-15.4s6.9-15.4,15.4-15.4S58.7,58.3,58.7,66.8z M49.3,65.6c0,0.7,0.5,1.2,1.2,1.2  s1.2-0.5,1.2-1.2s-0.5-1.2-1.2-1.2S49.3,64.9,49.3,65.6z M45.7,65.6c0,0.7,0.5,1.2,1.2,1.2s1.2-0.5,1.2-1.2s-0.5-1.2-1.2-1.2  S45.7,64.9,45.7,65.6z M42.1,58.4c0,0.7,0.5,1.2,1.2,1.2s1.2-0.5,1.2-1.2s-0.5-1.2-1.2-1.2S42.1,57.7,42.1,58.4z M42.1,62  c0,0.7,0.5,1.2,1.2,1.2s1.2-0.5,1.2-1.2s-0.5-1.2-1.2-1.2S42.1,61.3,42.1,62z M42.1,69.2c0,0.7,0.5,1.2,1.2,1.2s1.2-0.5,1.2-1.2  S44,68,43.3,68S42.1,68.5,42.1,69.2z M42.1,72.8c0,0.7,0.5,1.2,1.2,1.2s1.2-0.5,1.2-1.2s-0.5-1.2-1.2-1.2  C42.6,71.6,42.1,72.1,42.1,72.8z M38.5,65.6c0,0.7,0.5,1.2,1.2,1.2s1.2-0.5,1.2-1.2s-0.5-1.2-1.2-1.2S38.5,64.9,38.5,65.6z   M36.1,64.4c-0.7,0-1.2,0.5-1.2,1.2s0.5,1.2,1.2,1.2s1.2-0.5,1.2-1.2S36.8,64.4,36.1,64.4z M56.3,66.8c0-4.6-2.4-8.7-6.1-11  c3.1,2.2,5.1,5.8,5.1,9.8c0,6.6-5.4,12-12,12s-12-5.4-12-12c0-4.1,2-7.6,5.1-9.8c-3.6,2.3-6.1,6.4-6.1,11c0,7.2,5.8,13,13,13  C50.5,79.7,56.3,73.9,56.3,66.8z M52.4,86.4v5.1c0,1-4.1,1.8-9.1,1.8s-9.1-0.8-9.1-1.8v-5.1c0-1,4.1-1.8,9.1-1.8  S52.4,85.4,52.4,86.4z M52.2,91.5c0-0.7-3.4-1.6-8.9-1.6s-8.9,0.9-8.9,1.6s3.4,1.6,8.9,1.6S52.2,92.1,52.2,91.5z M30.3,79.6l-3,3  c-0.1,0.1-0.2,0.1-0.3,0.1c-1,0-3.5-1.8-6.1-4.4c-2.9-2.9-4.9-5.8-4.3-6.4l3-3c0.6-0.6,3.5,1.3,6.4,4.3C29,76.2,30.9,79,30.3,79.6z   M23,76.3c-2.8-2.8-5.2-4.3-6-4.3c-0.1,0-0.2,0-0.2,0.1c-0.4,0.4,1,2.9,4.3,6.2c2.8,2.8,5.2,4.3,6,4.3c0.1,0,0.2,0,0.2-0.1  C27.6,82.1,26.2,79.6,23,76.3z M79.3,86.1c-4.4,6.8-9.2,11.4-10.2,11.4c-0.1,0-0.1,0-0.1,0L66.8,96c-0.2-0.1-0.2-0.7,0-1.6  c-0.6,0.5-1,0.7-1.3,0.7c-0.1,0-0.1,0-0.1,0l-11.1-7.2c-0.7-0.5,1.3-7.8,5.9-14.9c0.7-1.1,1.4-2,2.1-3c-1.8,0.7-0.5-5.6-3.3-10.5  c-3.1-5.5-9-9.2-15.8-9.2l0,0l0,0c-6.8,0-12.7,3.7-15.8,9.2s-1.1,12.9-4.1,9.9s-8.3-14-6.9-13.7s6.1-0.2,8.7-1.8  c1.3-0.9,4.4-4.7,7.3-8.5c3-3.9,5.7-7.8,6-8.3c0.6-1,1.2-3.5,1.2-6.4V25c0-3.5-3.7-3.6-3.7-3.6c-10.3-1.1-16,1-19.5,3.1  c0.3-12.2,12.1-22,26.6-22c0.1,0,0.1,0,0.2,0c0.1,0,0.1,0,0.2,0c14.6,0,26.4,9.8,26.6,22c-3.5-2.1-9.2-4.2-19.5-3.1  c0,0-3.7,0.1-3.7,3.6v5.9c0,2.9,0.6,5.4,1.2,6.4c0.3,0.5,3,4.4,6,8.3c2.9,3.8,6,7.6,7.3,8.5c2.6,1.6,7.4,2.1,8.7,1.8  c1-0.2-1.8,6.2-4.6,10.5c2.8-2.9,5.1-4.4,5.5-4.1L82,69.5c0.2,0.1,0.2,0.7-0.1,1.5c0.7-0.5,1.2-0.8,1.4-0.7l2.2,1.4  C86.5,72.2,83.9,79,79.3,86.1z M73,81.5c3.3-5,6.8-8.8,8.8-10.4c0.3-0.9,0.4-1.5,0.2-1.6l0,0c-0.9,0-5.6,4.4-10.1,11.3  c-4.7,7.2-7,13.8-6.4,14.2l0,0c0.2,0,0.7-0.3,1.3-0.9C67.6,91.5,69.7,86.6,73,81.5z M85.6,71.8L85.6,71.8c-1,0-5.8,4.4-10.2,11.2  c-4.9,7.5-6.8,14-6.4,14.3l0,0c0.9,0,5.6-4.4,10.1-11.3C83.9,78.8,86.1,72.2,85.6,71.8z"/></svg>