<?xml version="1.0" encoding="UTF-8" standalone="no"?>
<svg
   xmlns:dc="http://purl.org/dc/elements/1.1/"
   xmlns:cc="http://creativecommons.org/ns#"
   xmlns:rdf="http://www.w3.org/1999/02/22-rdf-syntax-ns#"
   xmlns:svg="http://www.w3.org/2000/svg"
   xmlns="http://www.w3.org/2000/svg"
   xmlns:sodipodi="http://sodipodi.sourceforge.net/DTD/sodipodi-0.dtd"
   xmlns:inkscape="http://www.inkscape.org/namespaces/inkscape"
   height="300px"
   width="300px"
   fill="#000000"
   version="1.1"
   x="0px"
   y="0px"
   viewBox="0 0 100 100"
   style="enable-background:new 0 0 100 100;"
   xml:space="preserve"
   id="svg6"
   sodipodi:docname="gasmask2.svg"
   inkscape:version="1.0.1 (3bc2e813f5, 2020-09-07)"><metadata
     id="metadata12"><rdf:RDF><cc:Work
         rdf:about=""><dc:format>image/svg+xml</dc:format><dc:type
           rdf:resource="http://purl.org/dc/dcmitype/StillImage" /></cc:Work></rdf:RDF></metadata><defs
     id="defs10" /><sodipodi:namedview
     pagecolor="#ffffff"
     bordercolor="#666666"
     borderopacity="1"
     objecttolerance="10"
     gridtolerance="10"
     guidetolerance="10"
     inkscape:pageopacity="0"
     inkscape:pageshadow="2"
     inkscape:window-width="2141"
     inkscape:window-height="1726"
     id="namedview8"
     showgrid="false"
     inkscape:zoom="5.0266667"
     inkscape:cx="150"
     inkscape:cy="150"
     inkscape:window-x="4210"
     inkscape:window-y="105"
     inkscape:window-maximized="0"
     inkscape:current-layer="svg6" /><style
     type="text/css"
     id="style2">
	.st0{fill:#000000;}
</style><path
     class="st0"
     d="m 70,32.4 v 10.8 c 0,1.2 -0.8,4.2 -2.3,5.8 0.9,-1.6 1.3,-3.6 1.3,-4.5 V 33.7 c 0,-1.3 -0.9,-2.9 -1.8,-3.5 -2.3,-1.6 -6.3,-4 -15.1,-3.1 0,0 -0.8,0 -1.6,0.5 0.4,-1.8 2.5,-1.8 2.5,-1.8 8.8,-0.9 12.8,1.5 15.1,3.1 1.1,0.7 1.9,2.2 1.9,3.5 z m -53.4,0 v 10.8 c 0,1.2 0.8,4.2 2.3,5.8 C 18,47.4 17.6,45.4 17.6,44.5 V 33.7 c 0,-1.3 0.9,-2.9 1.8,-3.5 2.3,-1.6 6.3,-4 15.1,-3.1 0,0 0.8,0 1.6,0.5 -0.4,-1.8 -2.5,-1.8 -2.5,-1.8 -8.8,-0.9 -12.8,1.5 -15.1,3.1 -1,0.7 -1.9,2.2 -1.9,3.5 z m 34.8,-9.5 c 11,-1.2 16,1.9 18.9,3.9 1.1,0.8 2.2,2.7 2.2,4.4 v 13.5 c 0,2 -1.9,8.6 -5.4,8.6 -3.5,0 -3.9,-0.3 -6.2,-1.9 -2.4,-1.5 -11.1,-13.8 -11.6,-14.7 -0.5,-0.8 -1,-3 -1,-5.6 V 26 c -0.1,-3 3.1,-3.1 3.1,-3.1 z m -1.5,9.3 c 0,2.2 0.4,4.1 0.9,4.8 0.4,0.7 8,11.3 10,12.6 2,1.3 2.3,1.6 5.4,1.6 3,0 4.6,-5.7 4.6,-7.4 V 32.2 c 0,-1.4 -0.9,-3.1 -1.9,-3.8 -2.5,-1.7 -6.8,-4.4 -16.2,-3.3 0,0 -2.8,0.1 -2.8,2.7 z M 38.5,26 v 5.1 c 0,2.5 -0.5,4.7 -1,5.6 -0.5,0.8 -9.3,13.2 -11.6,14.7 -2.4,1.5 -2.7,1.9 -6.2,1.9 -3.5,0 -5.4,-6.6 -5.4,-8.6 V 31.2 c 0,-1.7 1.1,-3.6 2.2,-4.4 2.9,-2 7.9,-5.1 18.9,-3.9 -0.1,0 3.1,0.1 3.1,3.1 z m -1.7,1.7 C 36.8,25.1 34,25 34,25 c -9.4,-1 -13.7,1.6 -16.2,3.3 -1,0.7 -1.9,2.3 -1.9,3.8 v 11.6 c 0,1.7 1.6,7.4 4.6,7.4 3,0 3.3,-0.3 5.4,-1.6 2,-1.3 9.6,-11.9 10,-12.6 0.4,-0.7 0.9,-2.6 0.9,-4.8 z m 21.9,39.1 c 0,8.5 -6.9,15.4 -15.4,15.4 -8.5,0 -15.4,-6.9 -15.4,-15.4 0,-8.5 6.9,-15.4 15.4,-15.4 8.5,0 15.4,6.9 15.4,15.4 z m -9.4,-1.2 c 0,0.7 0.5,1.2 1.2,1.2 0.7,0 1.2,-0.5 1.2,-1.2 0,-0.7 -0.5,-1.2 -1.2,-1.2 -0.7,0 -1.2,0.5 -1.2,1.2 z m -3.6,0 c 0,0.7 0.5,1.2 1.2,1.2 0.7,0 1.2,-0.5 1.2,-1.2 0,-0.7 -0.5,-1.2 -1.2,-1.2 -0.7,0 -1.2,0.5 -1.2,1.2 z m -3.6,-7.2 c 0,0.7 0.5,1.2 1.2,1.2 0.7,0 1.2,-0.5 1.2,-1.2 0,-0.7 -0.5,-1.2 -1.2,-1.2 -0.7,0 -1.2,0.5 -1.2,1.2 z m 0,3.6 c 0,0.7 0.5,1.2 1.2,1.2 0.7,0 1.2,-0.5 1.2,-1.2 0,-0.7 -0.5,-1.2 -1.2,-1.2 -0.7,0 -1.2,0.5 -1.2,1.2 z m 0,7.2 c 0,0.7 0.5,1.2 1.2,1.2 0.7,0 1.2,-0.5 1.2,-1.2 0,-0.7 -0.5,-1.2 -1.2,-1.2 -0.7,0 -1.2,0.5 -1.2,1.2 z m 0,3.6 c 0,0.7 0.5,1.2 1.2,1.2 0.7,0 1.2,-0.5 1.2,-1.2 0,-0.7 -0.5,-1.2 -1.2,-1.2 -0.7,0 -1.2,0.5 -1.2,1.2 z m -3.6,-7.2 c 0,0.7 0.5,1.2 1.2,1.2 0.7,0 1.2,-0.5 1.2,-1.2 0,-0.7 -0.5,-1.2 -1.2,-1.2 -0.7,0 -1.2,0.5 -1.2,1.2 z m -2.4,-1.2 c -0.7,0 -1.2,0.5 -1.2,1.2 0,0.7 0.5,1.2 1.2,1.2 0.7,0 1.2,-0.5 1.2,-1.2 0,-0.7 -0.5,-1.2 -1.2,-1.2 z m 20.2,2.4 c 0,-4.6 -2.4,-8.7 -6.1,-11 3.1,2.2 5.1,5.8 5.1,9.8 0,6.6 -5.4,12 -12,12 -6.6,0 -12,-5.4 -12,-12 0,-4.1 2,-7.6 5.1,-9.8 -3.6,2.3 -6.1,6.4 -6.1,11 0,7.2 5.8,13 13,13 7.2,-0.1 13,-5.9 13,-13 z m -3.9,19.6 v 5.1 c 0,1 -4.1,1.8 -9.1,1.8 -5,0 -9.1,-0.8 -9.1,-1.8 v -5.1 c 0,-1 4.1,-1.8 9.1,-1.8 5,0 9.1,0.8 9.1,1.8 z m -0.2,5.1 c 0,-0.7 -3.4,-1.6 -8.9,-1.6 -5.5,0 -8.9,0.9 -8.9,1.6 0,0.7 3.4,1.6 8.9,1.6 5.5,0 8.9,-1 8.9,-1.6 z m -21.9,-11.9 -3,3 c -0.1,0.1 -0.2,0.1 -0.3,0.1 -1,0 -3.5,-1.8 -6.1,-4.4 C 18,75.4 16,72.5 16.6,71.9 l 3,-3 c 0.6,-0.6 3.5,1.3 6.4,4.3 3,3 4.9,5.8 4.3,6.4 z M 23,76.3 C 20.2,73.5 17.8,72 17,72 c -0.1,0 -0.2,0 -0.2,0.1 -0.4,0.4 1,2.9 4.3,6.2 2.8,2.8 5.2,4.3 6,4.3 0.1,0 0.2,0 0.2,-0.1 0.3,-0.4 -1.1,-2.9 -4.3,-6.2 z m 56.3,9.8 C 74.9,92.9 70.1,97.5 69.1,97.5 H 69 L 66.8,96 c -0.2,-0.1 -0.2,-0.7 0,-1.6 -0.6,0.5 -1,0.7 -1.3,0.7 H 65.4 L 54.3,87.9 C 53.6,87.4 55.6,80.1 60.2,73 60.9,71.9 61.6,71 62.3,70 60.5,70.7 61.8,64.4 59,59.5 55.9,54 50,50.3 43.2,50.3 v 0 0 c -6.8,0 -12.7,3.7 -15.8,9.2 -3.1,5.5 -1.1,12.9 -4.1,9.9 -3,-3 -8.3,-14 -6.9,-13.7 1.4,0.3 6.1,-0.2 8.7,-1.8 1.3,-0.9 4.4,-4.7 7.3,-8.5 3,-3.9 5.7,-7.8 6,-8.3 0.6,-1 1.2,-3.5 1.2,-6.4 V 25 c 0,-3.5 -3.7,-3.6 -3.7,-3.6 -10.3,-1.1 -16,1 -19.5,3.1 0.3,-12.2 12.1,-22 26.6,-22 h 0.2 0.2 c 14.928133,0 26.4,9.8 26.6,22 -3.5,-2.1 -9.2,-4.2 -19.5,-3.1 0,0 -3.7,0.1 -3.7,3.6 v 5.9 c 0,2.9 0.6,5.4 1.2,6.4 0.3,0.5 3,4.4 6,8.3 2.9,3.8 6,7.6 7.3,8.5 2.6,1.6 7.4,2.1 8.7,1.8 1,-0.2 -1.8,6.2 -4.6,10.5 2.8,-2.9 5.1,-4.4 5.5,-4.1 L 82,69.5 c 0.2,0.1 0.2,0.7 -0.1,1.5 0.7,-0.5 1.2,-0.8 1.4,-0.7 l 2.2,1.4 c 1,0.5 -1.6,7.3 -6.2,14.4 z M 73,81.5 c 3.3,-5 6.8,-8.8 8.8,-10.4 0.3,-0.9 0.4,-1.5 0.2,-1.6 v 0 c -0.9,0 -5.6,4.4 -10.1,11.3 -4.7,7.2 -7,13.8 -6.4,14.2 v 0 c 0.2,0 0.7,-0.3 1.3,-0.9 0.8,-2.6 2.9,-7.5 6.2,-12.6 z m 12.6,-9.7 v 0 c -1,0 -5.8,4.4 -10.2,11.2 -4.9,7.5 -6.8,14 -6.4,14.3 v 0 c 0.9,0 5.6,-4.4 10.1,-11.3 4.8,-7.2 7,-13.8 6.5,-14.2 z"
     id="path4"
     sodipodi:nodetypes="sscsscccccssscsscccccsccsssccsccscssssccssssccsssccssccssscssssssssssssssssssssssssssssssssssssssssssssssssscssscscssssssssssssssssssscscscsscccscccscccccscssssccsssccscsccsssccccccccccccsscssccsscsscs" /></svg>
