<?xml version="1.0" encoding="UTF-8" standalone="no"?>
<svg
   xmlns:dc="http://purl.org/dc/elements/1.1/"
   xmlns:cc="http://creativecommons.org/ns#"
   xmlns:rdf="http://www.w3.org/1999/02/22-rdf-syntax-ns#"
   xmlns:svg="http://www.w3.org/2000/svg"
   xmlns="http://www.w3.org/2000/svg"
   xmlns:sodipodi="http://sodipodi.sourceforge.net/DTD/sodipodi-0.dtd"
   xmlns:inkscape="http://www.inkscape.org/namespaces/inkscape"
   height="300px"
   width="300px"
   fill="#000000"
   version="1.1"
   x="0px"
   y="0px"
   viewBox="0 0 100 100"
   style="enable-background:new 0 0 100 100;"
   xml:space="preserve"
   id="svg6"
   sodipodi:docname="gasmask_mask.svg"
   inkscape:version="1.0.1 (3bc2e813f5, 2020-09-07)"><metadata
     id="metadata12"><rdf:RDF><cc:Work
         rdf:about=""><dc:format>image/svg+xml</dc:format><dc:type
           rdf:resource="http://purl.org/dc/dcmitype/StillImage" /><dc:title></dc:title></cc:Work></rdf:RDF></metadata><defs
     id="defs10" /><sodipodi:namedview
     pagecolor="#ffffff"
     bordercolor="#666666"
     borderopacity="1"
     objecttolerance="10"
     gridtolerance="10"
     guidetolerance="10"
     inkscape:pageopacity="0"
     inkscape:pageshadow="2"
     inkscape:window-width="2622"
     inkscape:window-height="1971"
     id="namedview8"
     showgrid="false"
     inkscape:zoom="1.4142136"
     inkscape:cx="314.57243"
     inkscape:cy="186.85443"
     inkscape:window-x="4845"
     inkscape:window-y="0"
     inkscape:window-maximized="0"
     inkscape:current-layer="svg6" /><style
     type="text/css"
     id="style2">
	.st0{fill:#000000;}
</style><path
     class="st0"
     d="m 52.4,86.4 v 5.1 c 0,1 -4.1,1.8 -9.1,1.8 -5,0 -9.1,-0.8 -9.1,-1.8 v -5.1 l -3.9,-6.8 -3,3 c -0.1,0.1 -0.2,0.1 -0.3,0.1 -1,0 -3.5,-1.8 -6.1,-4.4 C 18,75.4 16,72.5 16.6,71.9 l 3,-3 3.7,0.5 c -3,-3 -6.195589,-11.358561 -6.9,-13.7 -0.259862,-10.362453 -1.646804,-17.173421 0,-31.2 0.3,-12.2 12.1,-22 26.6,-22 h 0.2 0.2 c 14.6,0 26.4,9.8 26.6,22 0.280011,7.342952 1.802487,19.616275 0,31.4 -0.140813,0.94352 -1.8,6.2 -4.6,10.5 2.8,-2.9 5.1,-4.4 5.5,-4.1 L 82,69.5 c 0.2,0.1 0.2,0.7 -0.1,1.5 0.7,-0.5 1.2,-0.8 1.4,-0.7 l 2.2,1.4 c 1,0.5 -1.6,7.3 -6.2,14.4 -4.4,6.8 -9.2,11.4 -10.2,11.4 H 69 L 66.8,96 c -0.2,-0.1 -0.2,-0.7 0,-1.6 -0.6,0.5 -1,0.7 -1.3,0.7 h -0.1 c 0,0 -10.216791,-6.647849 -10.817763,-6.971898 z"
     id="path4"
     sodipodi:nodetypes="csssccssssccccscscccccccccscccsccc" /></svg>
