%TF.GenerationSoftware,KiCad,Pcbnew,(5.99.0-10282-g296a9df530)*%
%TF.CreationDate,2021-08-12T07:58:25+00:00*%
%TF.ProjectId,sensorburner,73656e73-6f72-4627-9572-6e65722e6b69,rev?*%
%TF.SameCoordinates,Original*%
%TF.FileFunction,Legend,Top*%
%TF.FilePolarity,Positive*%
%FSLAX46Y46*%
G04 Gerber Fmt 4.6, Leading zero omitted, Abs format (unit mm)*
G04 Created by KiCad (PCBNEW (5.99.0-10282-g296a9df530)) date 2021-08-12 07:58:25*
%MOMM*%
%LPD*%
G01*
G04 APERTURE LIST*
%ADD10C,0.150000*%
%ADD11C,0.127000*%
%ADD12C,0.120000*%
G04 APERTURE END LIST*
D10*
%TO.C,U45*%
X60665428Y-90886857D02*
X61899142Y-90886857D01*
X62044285Y-90814285D01*
X62116857Y-90741714D01*
X62189428Y-90596571D01*
X62189428Y-90306285D01*
X62116857Y-90161142D01*
X62044285Y-90088571D01*
X61899142Y-90016000D01*
X60665428Y-90016000D01*
X61173428Y-88637142D02*
X62189428Y-88637142D01*
X60592857Y-89000000D02*
X61681428Y-89362857D01*
X61681428Y-88419428D01*
X60665428Y-87113142D02*
X60665428Y-87838857D01*
X61391142Y-87911428D01*
X61318571Y-87838857D01*
X61246000Y-87693714D01*
X61246000Y-87330857D01*
X61318571Y-87185714D01*
X61391142Y-87113142D01*
X61536285Y-87040571D01*
X61899142Y-87040571D01*
X62044285Y-87113142D01*
X62116857Y-87185714D01*
X62189428Y-87330857D01*
X62189428Y-87693714D01*
X62116857Y-87838857D01*
X62044285Y-87911428D01*
%TO.C,U24*%
X103165428Y-47886857D02*
X104399142Y-47886857D01*
X104544285Y-47814285D01*
X104616857Y-47741714D01*
X104689428Y-47596571D01*
X104689428Y-47306285D01*
X104616857Y-47161142D01*
X104544285Y-47088571D01*
X104399142Y-47016000D01*
X103165428Y-47016000D01*
X103310571Y-46362857D02*
X103238000Y-46290285D01*
X103165428Y-46145142D01*
X103165428Y-45782285D01*
X103238000Y-45637142D01*
X103310571Y-45564571D01*
X103455714Y-45492000D01*
X103600857Y-45492000D01*
X103818571Y-45564571D01*
X104689428Y-46435428D01*
X104689428Y-45492000D01*
X103673428Y-44185714D02*
X104689428Y-44185714D01*
X103092857Y-44548571D02*
X104181428Y-44911428D01*
X104181428Y-43968000D01*
%TO.C,U23*%
X88665428Y-47886857D02*
X89899142Y-47886857D01*
X90044285Y-47814285D01*
X90116857Y-47741714D01*
X90189428Y-47596571D01*
X90189428Y-47306285D01*
X90116857Y-47161142D01*
X90044285Y-47088571D01*
X89899142Y-47016000D01*
X88665428Y-47016000D01*
X88810571Y-46362857D02*
X88738000Y-46290285D01*
X88665428Y-46145142D01*
X88665428Y-45782285D01*
X88738000Y-45637142D01*
X88810571Y-45564571D01*
X88955714Y-45492000D01*
X89100857Y-45492000D01*
X89318571Y-45564571D01*
X90189428Y-46435428D01*
X90189428Y-45492000D01*
X88665428Y-44984000D02*
X88665428Y-44040571D01*
X89246000Y-44548571D01*
X89246000Y-44330857D01*
X89318571Y-44185714D01*
X89391142Y-44113142D01*
X89536285Y-44040571D01*
X89899142Y-44040571D01*
X90044285Y-44113142D01*
X90116857Y-44185714D01*
X90189428Y-44330857D01*
X90189428Y-44766285D01*
X90116857Y-44911428D01*
X90044285Y-44984000D01*
%TO.C,U20*%
X32665428Y-47886857D02*
X33899142Y-47886857D01*
X34044285Y-47814285D01*
X34116857Y-47741714D01*
X34189428Y-47596571D01*
X34189428Y-47306285D01*
X34116857Y-47161142D01*
X34044285Y-47088571D01*
X33899142Y-47016000D01*
X32665428Y-47016000D01*
X32810571Y-46362857D02*
X32738000Y-46290285D01*
X32665428Y-46145142D01*
X32665428Y-45782285D01*
X32738000Y-45637142D01*
X32810571Y-45564571D01*
X32955714Y-45492000D01*
X33100857Y-45492000D01*
X33318571Y-45564571D01*
X34189428Y-46435428D01*
X34189428Y-45492000D01*
X32665428Y-44548571D02*
X32665428Y-44403428D01*
X32738000Y-44258285D01*
X32810571Y-44185714D01*
X32955714Y-44113142D01*
X33246000Y-44040571D01*
X33608857Y-44040571D01*
X33899142Y-44113142D01*
X34044285Y-44185714D01*
X34116857Y-44258285D01*
X34189428Y-44403428D01*
X34189428Y-44548571D01*
X34116857Y-44693714D01*
X34044285Y-44766285D01*
X33899142Y-44838857D01*
X33608857Y-44911428D01*
X33246000Y-44911428D01*
X32955714Y-44838857D01*
X32810571Y-44766285D01*
X32738000Y-44693714D01*
X32665428Y-44548571D01*
%TO.C,U28*%
X32665428Y-62386857D02*
X33899142Y-62386857D01*
X34044285Y-62314285D01*
X34116857Y-62241714D01*
X34189428Y-62096571D01*
X34189428Y-61806285D01*
X34116857Y-61661142D01*
X34044285Y-61588571D01*
X33899142Y-61516000D01*
X32665428Y-61516000D01*
X32810571Y-60862857D02*
X32738000Y-60790285D01*
X32665428Y-60645142D01*
X32665428Y-60282285D01*
X32738000Y-60137142D01*
X32810571Y-60064571D01*
X32955714Y-59992000D01*
X33100857Y-59992000D01*
X33318571Y-60064571D01*
X34189428Y-60935428D01*
X34189428Y-59992000D01*
X33318571Y-59121142D02*
X33246000Y-59266285D01*
X33173428Y-59338857D01*
X33028285Y-59411428D01*
X32955714Y-59411428D01*
X32810571Y-59338857D01*
X32738000Y-59266285D01*
X32665428Y-59121142D01*
X32665428Y-58830857D01*
X32738000Y-58685714D01*
X32810571Y-58613142D01*
X32955714Y-58540571D01*
X33028285Y-58540571D01*
X33173428Y-58613142D01*
X33246000Y-58685714D01*
X33318571Y-58830857D01*
X33318571Y-59121142D01*
X33391142Y-59266285D01*
X33463714Y-59338857D01*
X33608857Y-59411428D01*
X33899142Y-59411428D01*
X34044285Y-59338857D01*
X34116857Y-59266285D01*
X34189428Y-59121142D01*
X34189428Y-58830857D01*
X34116857Y-58685714D01*
X34044285Y-58613142D01*
X33899142Y-58540571D01*
X33608857Y-58540571D01*
X33463714Y-58613142D01*
X33391142Y-58685714D01*
X33318571Y-58830857D01*
%TO.C,REF\u002A\u002A*%
X53166666Y-952380D02*
X52833333Y-476190D01*
X52595238Y-952380D02*
X52595238Y47619D01*
X52976190Y47619D01*
X53071428Y0D01*
X53119047Y-47619D01*
X53166666Y-142857D01*
X53166666Y-285714D01*
X53119047Y-380952D01*
X53071428Y-428571D01*
X52976190Y-476190D01*
X52595238Y-476190D01*
X53595238Y-428571D02*
X53928571Y-428571D01*
X54071428Y-952380D02*
X53595238Y-952380D01*
X53595238Y47619D01*
X54071428Y47619D01*
X54833333Y-428571D02*
X54500000Y-428571D01*
X54500000Y-952380D02*
X54500000Y47619D01*
X54976190Y47619D01*
X55500000Y47619D02*
X55500000Y-190476D01*
X55261904Y-95238D02*
X55500000Y-190476D01*
X55738095Y-95238D01*
X55357142Y-380952D02*
X55500000Y-190476D01*
X55642857Y-380952D01*
X56261904Y47619D02*
X56261904Y-190476D01*
X56023809Y-95238D02*
X56261904Y-190476D01*
X56500000Y-95238D01*
X56119047Y-380952D02*
X56261904Y-190476D01*
X56404761Y-380952D01*
%TO.C,U8*%
X103165428Y-19161142D02*
X104399142Y-19161142D01*
X104544285Y-19088571D01*
X104616857Y-19016000D01*
X104689428Y-18870857D01*
X104689428Y-18580571D01*
X104616857Y-18435428D01*
X104544285Y-18362857D01*
X104399142Y-18290285D01*
X103165428Y-18290285D01*
X103818571Y-17346857D02*
X103746000Y-17492000D01*
X103673428Y-17564571D01*
X103528285Y-17637142D01*
X103455714Y-17637142D01*
X103310571Y-17564571D01*
X103238000Y-17492000D01*
X103165428Y-17346857D01*
X103165428Y-17056571D01*
X103238000Y-16911428D01*
X103310571Y-16838857D01*
X103455714Y-16766285D01*
X103528285Y-16766285D01*
X103673428Y-16838857D01*
X103746000Y-16911428D01*
X103818571Y-17056571D01*
X103818571Y-17346857D01*
X103891142Y-17492000D01*
X103963714Y-17564571D01*
X104108857Y-17637142D01*
X104399142Y-17637142D01*
X104544285Y-17564571D01*
X104616857Y-17492000D01*
X104689428Y-17346857D01*
X104689428Y-17056571D01*
X104616857Y-16911428D01*
X104544285Y-16838857D01*
X104399142Y-16766285D01*
X104108857Y-16766285D01*
X103963714Y-16838857D01*
X103891142Y-16911428D01*
X103818571Y-17056571D01*
%TO.C,U16*%
X103165428Y-34386857D02*
X104399142Y-34386857D01*
X104544285Y-34314285D01*
X104616857Y-34241714D01*
X104689428Y-34096571D01*
X104689428Y-33806285D01*
X104616857Y-33661142D01*
X104544285Y-33588571D01*
X104399142Y-33516000D01*
X103165428Y-33516000D01*
X104689428Y-31992000D02*
X104689428Y-32862857D01*
X104689428Y-32427428D02*
X103165428Y-32427428D01*
X103383142Y-32572571D01*
X103528285Y-32717714D01*
X103600857Y-32862857D01*
X103165428Y-30685714D02*
X103165428Y-30976000D01*
X103238000Y-31121142D01*
X103310571Y-31193714D01*
X103528285Y-31338857D01*
X103818571Y-31411428D01*
X104399142Y-31411428D01*
X104544285Y-31338857D01*
X104616857Y-31266285D01*
X104689428Y-31121142D01*
X104689428Y-30830857D01*
X104616857Y-30685714D01*
X104544285Y-30613142D01*
X104399142Y-30540571D01*
X104036285Y-30540571D01*
X103891142Y-30613142D01*
X103818571Y-30685714D01*
X103746000Y-30830857D01*
X103746000Y-31121142D01*
X103818571Y-31266285D01*
X103891142Y-31338857D01*
X104036285Y-31411428D01*
%TO.C,U59*%
X32665428Y-121886857D02*
X33899142Y-121886857D01*
X34044285Y-121814285D01*
X34116857Y-121741714D01*
X34189428Y-121596571D01*
X34189428Y-121306285D01*
X34116857Y-121161142D01*
X34044285Y-121088571D01*
X33899142Y-121016000D01*
X32665428Y-121016000D01*
X32665428Y-119564571D02*
X32665428Y-120290285D01*
X33391142Y-120362857D01*
X33318571Y-120290285D01*
X33246000Y-120145142D01*
X33246000Y-119782285D01*
X33318571Y-119637142D01*
X33391142Y-119564571D01*
X33536285Y-119492000D01*
X33899142Y-119492000D01*
X34044285Y-119564571D01*
X34116857Y-119637142D01*
X34189428Y-119782285D01*
X34189428Y-120145142D01*
X34116857Y-120290285D01*
X34044285Y-120362857D01*
X34189428Y-118766285D02*
X34189428Y-118476000D01*
X34116857Y-118330857D01*
X34044285Y-118258285D01*
X33826571Y-118113142D01*
X33536285Y-118040571D01*
X32955714Y-118040571D01*
X32810571Y-118113142D01*
X32738000Y-118185714D01*
X32665428Y-118330857D01*
X32665428Y-118621142D01*
X32738000Y-118766285D01*
X32810571Y-118838857D01*
X32955714Y-118911428D01*
X33318571Y-118911428D01*
X33463714Y-118838857D01*
X33536285Y-118766285D01*
X33608857Y-118621142D01*
X33608857Y-118330857D01*
X33536285Y-118185714D01*
X33463714Y-118113142D01*
X33318571Y-118040571D01*
%TO.C,U7*%
X88665428Y-19161142D02*
X89899142Y-19161142D01*
X90044285Y-19088571D01*
X90116857Y-19016000D01*
X90189428Y-18870857D01*
X90189428Y-18580571D01*
X90116857Y-18435428D01*
X90044285Y-18362857D01*
X89899142Y-18290285D01*
X88665428Y-18290285D01*
X88665428Y-17709714D02*
X88665428Y-16693714D01*
X90189428Y-17346857D01*
%TO.C,U53*%
X60665428Y-105886857D02*
X61899142Y-105886857D01*
X62044285Y-105814285D01*
X62116857Y-105741714D01*
X62189428Y-105596571D01*
X62189428Y-105306285D01*
X62116857Y-105161142D01*
X62044285Y-105088571D01*
X61899142Y-105016000D01*
X60665428Y-105016000D01*
X60665428Y-103564571D02*
X60665428Y-104290285D01*
X61391142Y-104362857D01*
X61318571Y-104290285D01*
X61246000Y-104145142D01*
X61246000Y-103782285D01*
X61318571Y-103637142D01*
X61391142Y-103564571D01*
X61536285Y-103492000D01*
X61899142Y-103492000D01*
X62044285Y-103564571D01*
X62116857Y-103637142D01*
X62189428Y-103782285D01*
X62189428Y-104145142D01*
X62116857Y-104290285D01*
X62044285Y-104362857D01*
X60665428Y-102984000D02*
X60665428Y-102040571D01*
X61246000Y-102548571D01*
X61246000Y-102330857D01*
X61318571Y-102185714D01*
X61391142Y-102113142D01*
X61536285Y-102040571D01*
X61899142Y-102040571D01*
X62044285Y-102113142D01*
X62116857Y-102185714D01*
X62189428Y-102330857D01*
X62189428Y-102766285D01*
X62116857Y-102911428D01*
X62044285Y-102984000D01*
%TO.C,U51*%
X32665428Y-105886857D02*
X33899142Y-105886857D01*
X34044285Y-105814285D01*
X34116857Y-105741714D01*
X34189428Y-105596571D01*
X34189428Y-105306285D01*
X34116857Y-105161142D01*
X34044285Y-105088571D01*
X33899142Y-105016000D01*
X32665428Y-105016000D01*
X32665428Y-103564571D02*
X32665428Y-104290285D01*
X33391142Y-104362857D01*
X33318571Y-104290285D01*
X33246000Y-104145142D01*
X33246000Y-103782285D01*
X33318571Y-103637142D01*
X33391142Y-103564571D01*
X33536285Y-103492000D01*
X33899142Y-103492000D01*
X34044285Y-103564571D01*
X34116857Y-103637142D01*
X34189428Y-103782285D01*
X34189428Y-104145142D01*
X34116857Y-104290285D01*
X34044285Y-104362857D01*
X34189428Y-102040571D02*
X34189428Y-102911428D01*
X34189428Y-102476000D02*
X32665428Y-102476000D01*
X32883142Y-102621142D01*
X33028285Y-102766285D01*
X33100857Y-102911428D01*
%TO.C,U62*%
X60665428Y-121886857D02*
X61899142Y-121886857D01*
X62044285Y-121814285D01*
X62116857Y-121741714D01*
X62189428Y-121596571D01*
X62189428Y-121306285D01*
X62116857Y-121161142D01*
X62044285Y-121088571D01*
X61899142Y-121016000D01*
X60665428Y-121016000D01*
X60665428Y-119637142D02*
X60665428Y-119927428D01*
X60738000Y-120072571D01*
X60810571Y-120145142D01*
X61028285Y-120290285D01*
X61318571Y-120362857D01*
X61899142Y-120362857D01*
X62044285Y-120290285D01*
X62116857Y-120217714D01*
X62189428Y-120072571D01*
X62189428Y-119782285D01*
X62116857Y-119637142D01*
X62044285Y-119564571D01*
X61899142Y-119492000D01*
X61536285Y-119492000D01*
X61391142Y-119564571D01*
X61318571Y-119637142D01*
X61246000Y-119782285D01*
X61246000Y-120072571D01*
X61318571Y-120217714D01*
X61391142Y-120290285D01*
X61536285Y-120362857D01*
X60810571Y-118911428D02*
X60738000Y-118838857D01*
X60665428Y-118693714D01*
X60665428Y-118330857D01*
X60738000Y-118185714D01*
X60810571Y-118113142D01*
X60955714Y-118040571D01*
X61100857Y-118040571D01*
X61318571Y-118113142D01*
X62189428Y-118984000D01*
X62189428Y-118040571D01*
%TO.C,U6*%
X60665428Y-19161142D02*
X61899142Y-19161142D01*
X62044285Y-19088571D01*
X62116857Y-19016000D01*
X62189428Y-18870857D01*
X62189428Y-18580571D01*
X62116857Y-18435428D01*
X62044285Y-18362857D01*
X61899142Y-18290285D01*
X60665428Y-18290285D01*
X60665428Y-16911428D02*
X60665428Y-17201714D01*
X60738000Y-17346857D01*
X60810571Y-17419428D01*
X61028285Y-17564571D01*
X61318571Y-17637142D01*
X61899142Y-17637142D01*
X62044285Y-17564571D01*
X62116857Y-17492000D01*
X62189428Y-17346857D01*
X62189428Y-17056571D01*
X62116857Y-16911428D01*
X62044285Y-16838857D01*
X61899142Y-16766285D01*
X61536285Y-16766285D01*
X61391142Y-16838857D01*
X61318571Y-16911428D01*
X61246000Y-17056571D01*
X61246000Y-17346857D01*
X61318571Y-17492000D01*
X61391142Y-17564571D01*
X61536285Y-17637142D01*
%TO.C,U17*%
X5165428Y-47886857D02*
X6399142Y-47886857D01*
X6544285Y-47814285D01*
X6616857Y-47741714D01*
X6689428Y-47596571D01*
X6689428Y-47306285D01*
X6616857Y-47161142D01*
X6544285Y-47088571D01*
X6399142Y-47016000D01*
X5165428Y-47016000D01*
X6689428Y-45492000D02*
X6689428Y-46362857D01*
X6689428Y-45927428D02*
X5165428Y-45927428D01*
X5383142Y-46072571D01*
X5528285Y-46217714D01*
X5600857Y-46362857D01*
X5165428Y-44984000D02*
X5165428Y-43968000D01*
X6689428Y-44621142D01*
%TO.C,U22*%
X60665428Y-47886857D02*
X61899142Y-47886857D01*
X62044285Y-47814285D01*
X62116857Y-47741714D01*
X62189428Y-47596571D01*
X62189428Y-47306285D01*
X62116857Y-47161142D01*
X62044285Y-47088571D01*
X61899142Y-47016000D01*
X60665428Y-47016000D01*
X60810571Y-46362857D02*
X60738000Y-46290285D01*
X60665428Y-46145142D01*
X60665428Y-45782285D01*
X60738000Y-45637142D01*
X60810571Y-45564571D01*
X60955714Y-45492000D01*
X61100857Y-45492000D01*
X61318571Y-45564571D01*
X62189428Y-46435428D01*
X62189428Y-45492000D01*
X60810571Y-44911428D02*
X60738000Y-44838857D01*
X60665428Y-44693714D01*
X60665428Y-44330857D01*
X60738000Y-44185714D01*
X60810571Y-44113142D01*
X60955714Y-44040571D01*
X61100857Y-44040571D01*
X61318571Y-44113142D01*
X62189428Y-44984000D01*
X62189428Y-44040571D01*
%TO.C,U61*%
X60665428Y-121886857D02*
X61899142Y-121886857D01*
X62044285Y-121814285D01*
X62116857Y-121741714D01*
X62189428Y-121596571D01*
X62189428Y-121306285D01*
X62116857Y-121161142D01*
X62044285Y-121088571D01*
X61899142Y-121016000D01*
X60665428Y-121016000D01*
X60665428Y-119637142D02*
X60665428Y-119927428D01*
X60738000Y-120072571D01*
X60810571Y-120145142D01*
X61028285Y-120290285D01*
X61318571Y-120362857D01*
X61899142Y-120362857D01*
X62044285Y-120290285D01*
X62116857Y-120217714D01*
X62189428Y-120072571D01*
X62189428Y-119782285D01*
X62116857Y-119637142D01*
X62044285Y-119564571D01*
X61899142Y-119492000D01*
X61536285Y-119492000D01*
X61391142Y-119564571D01*
X61318571Y-119637142D01*
X61246000Y-119782285D01*
X61246000Y-120072571D01*
X61318571Y-120217714D01*
X61391142Y-120290285D01*
X61536285Y-120362857D01*
X62189428Y-118040571D02*
X62189428Y-118911428D01*
X62189428Y-118476000D02*
X60665428Y-118476000D01*
X60883142Y-118621142D01*
X61028285Y-118766285D01*
X61100857Y-118911428D01*
%TO.C,U25*%
X5165428Y-62386857D02*
X6399142Y-62386857D01*
X6544285Y-62314285D01*
X6616857Y-62241714D01*
X6689428Y-62096571D01*
X6689428Y-61806285D01*
X6616857Y-61661142D01*
X6544285Y-61588571D01*
X6399142Y-61516000D01*
X5165428Y-61516000D01*
X5310571Y-60862857D02*
X5238000Y-60790285D01*
X5165428Y-60645142D01*
X5165428Y-60282285D01*
X5238000Y-60137142D01*
X5310571Y-60064571D01*
X5455714Y-59992000D01*
X5600857Y-59992000D01*
X5818571Y-60064571D01*
X6689428Y-60935428D01*
X6689428Y-59992000D01*
X5165428Y-58613142D02*
X5165428Y-59338857D01*
X5891142Y-59411428D01*
X5818571Y-59338857D01*
X5746000Y-59193714D01*
X5746000Y-58830857D01*
X5818571Y-58685714D01*
X5891142Y-58613142D01*
X6036285Y-58540571D01*
X6399142Y-58540571D01*
X6544285Y-58613142D01*
X6616857Y-58685714D01*
X6689428Y-58830857D01*
X6689428Y-59193714D01*
X6616857Y-59338857D01*
X6544285Y-59411428D01*
%TO.C,U63*%
X88665428Y-121886857D02*
X89899142Y-121886857D01*
X90044285Y-121814285D01*
X90116857Y-121741714D01*
X90189428Y-121596571D01*
X90189428Y-121306285D01*
X90116857Y-121161142D01*
X90044285Y-121088571D01*
X89899142Y-121016000D01*
X88665428Y-121016000D01*
X88665428Y-119637142D02*
X88665428Y-119927428D01*
X88738000Y-120072571D01*
X88810571Y-120145142D01*
X89028285Y-120290285D01*
X89318571Y-120362857D01*
X89899142Y-120362857D01*
X90044285Y-120290285D01*
X90116857Y-120217714D01*
X90189428Y-120072571D01*
X90189428Y-119782285D01*
X90116857Y-119637142D01*
X90044285Y-119564571D01*
X89899142Y-119492000D01*
X89536285Y-119492000D01*
X89391142Y-119564571D01*
X89318571Y-119637142D01*
X89246000Y-119782285D01*
X89246000Y-120072571D01*
X89318571Y-120217714D01*
X89391142Y-120290285D01*
X89536285Y-120362857D01*
X88665428Y-118984000D02*
X88665428Y-118040571D01*
X89246000Y-118548571D01*
X89246000Y-118330857D01*
X89318571Y-118185714D01*
X89391142Y-118113142D01*
X89536285Y-118040571D01*
X89899142Y-118040571D01*
X90044285Y-118113142D01*
X90116857Y-118185714D01*
X90189428Y-118330857D01*
X90189428Y-118766285D01*
X90116857Y-118911428D01*
X90044285Y-118984000D01*
%TO.C,U43*%
X32665428Y-90886857D02*
X33899142Y-90886857D01*
X34044285Y-90814285D01*
X34116857Y-90741714D01*
X34189428Y-90596571D01*
X34189428Y-90306285D01*
X34116857Y-90161142D01*
X34044285Y-90088571D01*
X33899142Y-90016000D01*
X32665428Y-90016000D01*
X33173428Y-88637142D02*
X34189428Y-88637142D01*
X32592857Y-89000000D02*
X33681428Y-89362857D01*
X33681428Y-88419428D01*
X32665428Y-87984000D02*
X32665428Y-87040571D01*
X33246000Y-87548571D01*
X33246000Y-87330857D01*
X33318571Y-87185714D01*
X33391142Y-87113142D01*
X33536285Y-87040571D01*
X33899142Y-87040571D01*
X34044285Y-87113142D01*
X34116857Y-87185714D01*
X34189428Y-87330857D01*
X34189428Y-87766285D01*
X34116857Y-87911428D01*
X34044285Y-87984000D01*
%TO.C,U49*%
X5165428Y-105886857D02*
X6399142Y-105886857D01*
X6544285Y-105814285D01*
X6616857Y-105741714D01*
X6689428Y-105596571D01*
X6689428Y-105306285D01*
X6616857Y-105161142D01*
X6544285Y-105088571D01*
X6399142Y-105016000D01*
X5165428Y-105016000D01*
X5673428Y-103637142D02*
X6689428Y-103637142D01*
X5092857Y-104000000D02*
X6181428Y-104362857D01*
X6181428Y-103419428D01*
X6689428Y-102766285D02*
X6689428Y-102476000D01*
X6616857Y-102330857D01*
X6544285Y-102258285D01*
X6326571Y-102113142D01*
X6036285Y-102040571D01*
X5455714Y-102040571D01*
X5310571Y-102113142D01*
X5238000Y-102185714D01*
X5165428Y-102330857D01*
X5165428Y-102621142D01*
X5238000Y-102766285D01*
X5310571Y-102838857D01*
X5455714Y-102911428D01*
X5818571Y-102911428D01*
X5963714Y-102838857D01*
X6036285Y-102766285D01*
X6108857Y-102621142D01*
X6108857Y-102330857D01*
X6036285Y-102185714D01*
X5963714Y-102113142D01*
X5818571Y-102040571D01*
%TO.C,U14*%
X60665428Y-34386857D02*
X61899142Y-34386857D01*
X62044285Y-34314285D01*
X62116857Y-34241714D01*
X62189428Y-34096571D01*
X62189428Y-33806285D01*
X62116857Y-33661142D01*
X62044285Y-33588571D01*
X61899142Y-33516000D01*
X60665428Y-33516000D01*
X62189428Y-31992000D02*
X62189428Y-32862857D01*
X62189428Y-32427428D02*
X60665428Y-32427428D01*
X60883142Y-32572571D01*
X61028285Y-32717714D01*
X61100857Y-32862857D01*
X61173428Y-30685714D02*
X62189428Y-30685714D01*
X60592857Y-31048571D02*
X61681428Y-31411428D01*
X61681428Y-30468000D01*
%TO.C,U44*%
X32665428Y-90886857D02*
X33899142Y-90886857D01*
X34044285Y-90814285D01*
X34116857Y-90741714D01*
X34189428Y-90596571D01*
X34189428Y-90306285D01*
X34116857Y-90161142D01*
X34044285Y-90088571D01*
X33899142Y-90016000D01*
X32665428Y-90016000D01*
X33173428Y-88637142D02*
X34189428Y-88637142D01*
X32592857Y-89000000D02*
X33681428Y-89362857D01*
X33681428Y-88419428D01*
X33173428Y-87185714D02*
X34189428Y-87185714D01*
X32592857Y-87548571D02*
X33681428Y-87911428D01*
X33681428Y-86968000D01*
%TO.C,U48*%
X103165428Y-90886857D02*
X104399142Y-90886857D01*
X104544285Y-90814285D01*
X104616857Y-90741714D01*
X104689428Y-90596571D01*
X104689428Y-90306285D01*
X104616857Y-90161142D01*
X104544285Y-90088571D01*
X104399142Y-90016000D01*
X103165428Y-90016000D01*
X103673428Y-88637142D02*
X104689428Y-88637142D01*
X103092857Y-89000000D02*
X104181428Y-89362857D01*
X104181428Y-88419428D01*
X103818571Y-87621142D02*
X103746000Y-87766285D01*
X103673428Y-87838857D01*
X103528285Y-87911428D01*
X103455714Y-87911428D01*
X103310571Y-87838857D01*
X103238000Y-87766285D01*
X103165428Y-87621142D01*
X103165428Y-87330857D01*
X103238000Y-87185714D01*
X103310571Y-87113142D01*
X103455714Y-87040571D01*
X103528285Y-87040571D01*
X103673428Y-87113142D01*
X103746000Y-87185714D01*
X103818571Y-87330857D01*
X103818571Y-87621142D01*
X103891142Y-87766285D01*
X103963714Y-87838857D01*
X104108857Y-87911428D01*
X104399142Y-87911428D01*
X104544285Y-87838857D01*
X104616857Y-87766285D01*
X104689428Y-87621142D01*
X104689428Y-87330857D01*
X104616857Y-87185714D01*
X104544285Y-87113142D01*
X104399142Y-87040571D01*
X104108857Y-87040571D01*
X103963714Y-87113142D01*
X103891142Y-87185714D01*
X103818571Y-87330857D01*
%TO.C,U30*%
X60665428Y-62386857D02*
X61899142Y-62386857D01*
X62044285Y-62314285D01*
X62116857Y-62241714D01*
X62189428Y-62096571D01*
X62189428Y-61806285D01*
X62116857Y-61661142D01*
X62044285Y-61588571D01*
X61899142Y-61516000D01*
X60665428Y-61516000D01*
X60665428Y-60935428D02*
X60665428Y-59992000D01*
X61246000Y-60500000D01*
X61246000Y-60282285D01*
X61318571Y-60137142D01*
X61391142Y-60064571D01*
X61536285Y-59992000D01*
X61899142Y-59992000D01*
X62044285Y-60064571D01*
X62116857Y-60137142D01*
X62189428Y-60282285D01*
X62189428Y-60717714D01*
X62116857Y-60862857D01*
X62044285Y-60935428D01*
X60665428Y-59048571D02*
X60665428Y-58903428D01*
X60738000Y-58758285D01*
X60810571Y-58685714D01*
X60955714Y-58613142D01*
X61246000Y-58540571D01*
X61608857Y-58540571D01*
X61899142Y-58613142D01*
X62044285Y-58685714D01*
X62116857Y-58758285D01*
X62189428Y-58903428D01*
X62189428Y-59048571D01*
X62116857Y-59193714D01*
X62044285Y-59266285D01*
X61899142Y-59338857D01*
X61608857Y-59411428D01*
X61246000Y-59411428D01*
X60955714Y-59338857D01*
X60810571Y-59266285D01*
X60738000Y-59193714D01*
X60665428Y-59048571D01*
%TO.C,U11*%
X32665428Y-34386857D02*
X33899142Y-34386857D01*
X34044285Y-34314285D01*
X34116857Y-34241714D01*
X34189428Y-34096571D01*
X34189428Y-33806285D01*
X34116857Y-33661142D01*
X34044285Y-33588571D01*
X33899142Y-33516000D01*
X32665428Y-33516000D01*
X34189428Y-31992000D02*
X34189428Y-32862857D01*
X34189428Y-32427428D02*
X32665428Y-32427428D01*
X32883142Y-32572571D01*
X33028285Y-32717714D01*
X33100857Y-32862857D01*
X34189428Y-30540571D02*
X34189428Y-31411428D01*
X34189428Y-30976000D02*
X32665428Y-30976000D01*
X32883142Y-31121142D01*
X33028285Y-31266285D01*
X33100857Y-31411428D01*
%TO.C,U46*%
X60665428Y-90886857D02*
X61899142Y-90886857D01*
X62044285Y-90814285D01*
X62116857Y-90741714D01*
X62189428Y-90596571D01*
X62189428Y-90306285D01*
X62116857Y-90161142D01*
X62044285Y-90088571D01*
X61899142Y-90016000D01*
X60665428Y-90016000D01*
X61173428Y-88637142D02*
X62189428Y-88637142D01*
X60592857Y-89000000D02*
X61681428Y-89362857D01*
X61681428Y-88419428D01*
X60665428Y-87185714D02*
X60665428Y-87476000D01*
X60738000Y-87621142D01*
X60810571Y-87693714D01*
X61028285Y-87838857D01*
X61318571Y-87911428D01*
X61899142Y-87911428D01*
X62044285Y-87838857D01*
X62116857Y-87766285D01*
X62189428Y-87621142D01*
X62189428Y-87330857D01*
X62116857Y-87185714D01*
X62044285Y-87113142D01*
X61899142Y-87040571D01*
X61536285Y-87040571D01*
X61391142Y-87113142D01*
X61318571Y-87185714D01*
X61246000Y-87330857D01*
X61246000Y-87621142D01*
X61318571Y-87766285D01*
X61391142Y-87838857D01*
X61536285Y-87911428D01*
%TO.C,U39*%
X88665428Y-75886857D02*
X89899142Y-75886857D01*
X90044285Y-75814285D01*
X90116857Y-75741714D01*
X90189428Y-75596571D01*
X90189428Y-75306285D01*
X90116857Y-75161142D01*
X90044285Y-75088571D01*
X89899142Y-75016000D01*
X88665428Y-75016000D01*
X88665428Y-74435428D02*
X88665428Y-73492000D01*
X89246000Y-74000000D01*
X89246000Y-73782285D01*
X89318571Y-73637142D01*
X89391142Y-73564571D01*
X89536285Y-73492000D01*
X89899142Y-73492000D01*
X90044285Y-73564571D01*
X90116857Y-73637142D01*
X90189428Y-73782285D01*
X90189428Y-74217714D01*
X90116857Y-74362857D01*
X90044285Y-74435428D01*
X90189428Y-72766285D02*
X90189428Y-72476000D01*
X90116857Y-72330857D01*
X90044285Y-72258285D01*
X89826571Y-72113142D01*
X89536285Y-72040571D01*
X88955714Y-72040571D01*
X88810571Y-72113142D01*
X88738000Y-72185714D01*
X88665428Y-72330857D01*
X88665428Y-72621142D01*
X88738000Y-72766285D01*
X88810571Y-72838857D01*
X88955714Y-72911428D01*
X89318571Y-72911428D01*
X89463714Y-72838857D01*
X89536285Y-72766285D01*
X89608857Y-72621142D01*
X89608857Y-72330857D01*
X89536285Y-72185714D01*
X89463714Y-72113142D01*
X89318571Y-72040571D01*
%TO.C,U42*%
X18665428Y-90886857D02*
X19899142Y-90886857D01*
X20044285Y-90814285D01*
X20116857Y-90741714D01*
X20189428Y-90596571D01*
X20189428Y-90306285D01*
X20116857Y-90161142D01*
X20044285Y-90088571D01*
X19899142Y-90016000D01*
X18665428Y-90016000D01*
X19173428Y-88637142D02*
X20189428Y-88637142D01*
X18592857Y-89000000D02*
X19681428Y-89362857D01*
X19681428Y-88419428D01*
X18810571Y-87911428D02*
X18738000Y-87838857D01*
X18665428Y-87693714D01*
X18665428Y-87330857D01*
X18738000Y-87185714D01*
X18810571Y-87113142D01*
X18955714Y-87040571D01*
X19100857Y-87040571D01*
X19318571Y-87113142D01*
X20189428Y-87984000D01*
X20189428Y-87040571D01*
%TO.C,U38*%
X60665428Y-75886857D02*
X61899142Y-75886857D01*
X62044285Y-75814285D01*
X62116857Y-75741714D01*
X62189428Y-75596571D01*
X62189428Y-75306285D01*
X62116857Y-75161142D01*
X62044285Y-75088571D01*
X61899142Y-75016000D01*
X60665428Y-75016000D01*
X60665428Y-74435428D02*
X60665428Y-73492000D01*
X61246000Y-74000000D01*
X61246000Y-73782285D01*
X61318571Y-73637142D01*
X61391142Y-73564571D01*
X61536285Y-73492000D01*
X61899142Y-73492000D01*
X62044285Y-73564571D01*
X62116857Y-73637142D01*
X62189428Y-73782285D01*
X62189428Y-74217714D01*
X62116857Y-74362857D01*
X62044285Y-74435428D01*
X61318571Y-72621142D02*
X61246000Y-72766285D01*
X61173428Y-72838857D01*
X61028285Y-72911428D01*
X60955714Y-72911428D01*
X60810571Y-72838857D01*
X60738000Y-72766285D01*
X60665428Y-72621142D01*
X60665428Y-72330857D01*
X60738000Y-72185714D01*
X60810571Y-72113142D01*
X60955714Y-72040571D01*
X61028285Y-72040571D01*
X61173428Y-72113142D01*
X61246000Y-72185714D01*
X61318571Y-72330857D01*
X61318571Y-72621142D01*
X61391142Y-72766285D01*
X61463714Y-72838857D01*
X61608857Y-72911428D01*
X61899142Y-72911428D01*
X62044285Y-72838857D01*
X62116857Y-72766285D01*
X62189428Y-72621142D01*
X62189428Y-72330857D01*
X62116857Y-72185714D01*
X62044285Y-72113142D01*
X61899142Y-72040571D01*
X61608857Y-72040571D01*
X61463714Y-72113142D01*
X61391142Y-72185714D01*
X61318571Y-72330857D01*
%TO.C,U58*%
X18665428Y-121886857D02*
X19899142Y-121886857D01*
X20044285Y-121814285D01*
X20116857Y-121741714D01*
X20189428Y-121596571D01*
X20189428Y-121306285D01*
X20116857Y-121161142D01*
X20044285Y-121088571D01*
X19899142Y-121016000D01*
X18665428Y-121016000D01*
X18665428Y-119564571D02*
X18665428Y-120290285D01*
X19391142Y-120362857D01*
X19318571Y-120290285D01*
X19246000Y-120145142D01*
X19246000Y-119782285D01*
X19318571Y-119637142D01*
X19391142Y-119564571D01*
X19536285Y-119492000D01*
X19899142Y-119492000D01*
X20044285Y-119564571D01*
X20116857Y-119637142D01*
X20189428Y-119782285D01*
X20189428Y-120145142D01*
X20116857Y-120290285D01*
X20044285Y-120362857D01*
X19318571Y-118621142D02*
X19246000Y-118766285D01*
X19173428Y-118838857D01*
X19028285Y-118911428D01*
X18955714Y-118911428D01*
X18810571Y-118838857D01*
X18738000Y-118766285D01*
X18665428Y-118621142D01*
X18665428Y-118330857D01*
X18738000Y-118185714D01*
X18810571Y-118113142D01*
X18955714Y-118040571D01*
X19028285Y-118040571D01*
X19173428Y-118113142D01*
X19246000Y-118185714D01*
X19318571Y-118330857D01*
X19318571Y-118621142D01*
X19391142Y-118766285D01*
X19463714Y-118838857D01*
X19608857Y-118911428D01*
X19899142Y-118911428D01*
X20044285Y-118838857D01*
X20116857Y-118766285D01*
X20189428Y-118621142D01*
X20189428Y-118330857D01*
X20116857Y-118185714D01*
X20044285Y-118113142D01*
X19899142Y-118040571D01*
X19608857Y-118040571D01*
X19463714Y-118113142D01*
X19391142Y-118185714D01*
X19318571Y-118330857D01*
%TO.C,U5*%
X60665428Y-19161142D02*
X61899142Y-19161142D01*
X62044285Y-19088571D01*
X62116857Y-19016000D01*
X62189428Y-18870857D01*
X62189428Y-18580571D01*
X62116857Y-18435428D01*
X62044285Y-18362857D01*
X61899142Y-18290285D01*
X60665428Y-18290285D01*
X60665428Y-16838857D02*
X60665428Y-17564571D01*
X61391142Y-17637142D01*
X61318571Y-17564571D01*
X61246000Y-17419428D01*
X61246000Y-17056571D01*
X61318571Y-16911428D01*
X61391142Y-16838857D01*
X61536285Y-16766285D01*
X61899142Y-16766285D01*
X62044285Y-16838857D01*
X62116857Y-16911428D01*
X62189428Y-17056571D01*
X62189428Y-17419428D01*
X62116857Y-17564571D01*
X62044285Y-17637142D01*
%TO.C,U50*%
X18665428Y-105886857D02*
X19899142Y-105886857D01*
X20044285Y-105814285D01*
X20116857Y-105741714D01*
X20189428Y-105596571D01*
X20189428Y-105306285D01*
X20116857Y-105161142D01*
X20044285Y-105088571D01*
X19899142Y-105016000D01*
X18665428Y-105016000D01*
X18665428Y-103564571D02*
X18665428Y-104290285D01*
X19391142Y-104362857D01*
X19318571Y-104290285D01*
X19246000Y-104145142D01*
X19246000Y-103782285D01*
X19318571Y-103637142D01*
X19391142Y-103564571D01*
X19536285Y-103492000D01*
X19899142Y-103492000D01*
X20044285Y-103564571D01*
X20116857Y-103637142D01*
X20189428Y-103782285D01*
X20189428Y-104145142D01*
X20116857Y-104290285D01*
X20044285Y-104362857D01*
X18665428Y-102548571D02*
X18665428Y-102403428D01*
X18738000Y-102258285D01*
X18810571Y-102185714D01*
X18955714Y-102113142D01*
X19246000Y-102040571D01*
X19608857Y-102040571D01*
X19899142Y-102113142D01*
X20044285Y-102185714D01*
X20116857Y-102258285D01*
X20189428Y-102403428D01*
X20189428Y-102548571D01*
X20116857Y-102693714D01*
X20044285Y-102766285D01*
X19899142Y-102838857D01*
X19608857Y-102911428D01*
X19246000Y-102911428D01*
X18955714Y-102838857D01*
X18810571Y-102766285D01*
X18738000Y-102693714D01*
X18665428Y-102548571D01*
%TO.C,U19*%
X32665428Y-47886857D02*
X33899142Y-47886857D01*
X34044285Y-47814285D01*
X34116857Y-47741714D01*
X34189428Y-47596571D01*
X34189428Y-47306285D01*
X34116857Y-47161142D01*
X34044285Y-47088571D01*
X33899142Y-47016000D01*
X32665428Y-47016000D01*
X34189428Y-45492000D02*
X34189428Y-46362857D01*
X34189428Y-45927428D02*
X32665428Y-45927428D01*
X32883142Y-46072571D01*
X33028285Y-46217714D01*
X33100857Y-46362857D01*
X34189428Y-44766285D02*
X34189428Y-44476000D01*
X34116857Y-44330857D01*
X34044285Y-44258285D01*
X33826571Y-44113142D01*
X33536285Y-44040571D01*
X32955714Y-44040571D01*
X32810571Y-44113142D01*
X32738000Y-44185714D01*
X32665428Y-44330857D01*
X32665428Y-44621142D01*
X32738000Y-44766285D01*
X32810571Y-44838857D01*
X32955714Y-44911428D01*
X33318571Y-44911428D01*
X33463714Y-44838857D01*
X33536285Y-44766285D01*
X33608857Y-44621142D01*
X33608857Y-44330857D01*
X33536285Y-44185714D01*
X33463714Y-44113142D01*
X33318571Y-44040571D01*
%TO.C,U21*%
X60665428Y-47886857D02*
X61899142Y-47886857D01*
X62044285Y-47814285D01*
X62116857Y-47741714D01*
X62189428Y-47596571D01*
X62189428Y-47306285D01*
X62116857Y-47161142D01*
X62044285Y-47088571D01*
X61899142Y-47016000D01*
X60665428Y-47016000D01*
X60810571Y-46362857D02*
X60738000Y-46290285D01*
X60665428Y-46145142D01*
X60665428Y-45782285D01*
X60738000Y-45637142D01*
X60810571Y-45564571D01*
X60955714Y-45492000D01*
X61100857Y-45492000D01*
X61318571Y-45564571D01*
X62189428Y-46435428D01*
X62189428Y-45492000D01*
X62189428Y-44040571D02*
X62189428Y-44911428D01*
X62189428Y-44476000D02*
X60665428Y-44476000D01*
X60883142Y-44621142D01*
X61028285Y-44766285D01*
X61100857Y-44911428D01*
%TO.C,U56*%
X103165428Y-105886857D02*
X104399142Y-105886857D01*
X104544285Y-105814285D01*
X104616857Y-105741714D01*
X104689428Y-105596571D01*
X104689428Y-105306285D01*
X104616857Y-105161142D01*
X104544285Y-105088571D01*
X104399142Y-105016000D01*
X103165428Y-105016000D01*
X103165428Y-103564571D02*
X103165428Y-104290285D01*
X103891142Y-104362857D01*
X103818571Y-104290285D01*
X103746000Y-104145142D01*
X103746000Y-103782285D01*
X103818571Y-103637142D01*
X103891142Y-103564571D01*
X104036285Y-103492000D01*
X104399142Y-103492000D01*
X104544285Y-103564571D01*
X104616857Y-103637142D01*
X104689428Y-103782285D01*
X104689428Y-104145142D01*
X104616857Y-104290285D01*
X104544285Y-104362857D01*
X103165428Y-102185714D02*
X103165428Y-102476000D01*
X103238000Y-102621142D01*
X103310571Y-102693714D01*
X103528285Y-102838857D01*
X103818571Y-102911428D01*
X104399142Y-102911428D01*
X104544285Y-102838857D01*
X104616857Y-102766285D01*
X104689428Y-102621142D01*
X104689428Y-102330857D01*
X104616857Y-102185714D01*
X104544285Y-102113142D01*
X104399142Y-102040571D01*
X104036285Y-102040571D01*
X103891142Y-102113142D01*
X103818571Y-102185714D01*
X103746000Y-102330857D01*
X103746000Y-102621142D01*
X103818571Y-102766285D01*
X103891142Y-102838857D01*
X104036285Y-102911428D01*
%TO.C,U35*%
X32665428Y-75886857D02*
X33899142Y-75886857D01*
X34044285Y-75814285D01*
X34116857Y-75741714D01*
X34189428Y-75596571D01*
X34189428Y-75306285D01*
X34116857Y-75161142D01*
X34044285Y-75088571D01*
X33899142Y-75016000D01*
X32665428Y-75016000D01*
X32665428Y-74435428D02*
X32665428Y-73492000D01*
X33246000Y-74000000D01*
X33246000Y-73782285D01*
X33318571Y-73637142D01*
X33391142Y-73564571D01*
X33536285Y-73492000D01*
X33899142Y-73492000D01*
X34044285Y-73564571D01*
X34116857Y-73637142D01*
X34189428Y-73782285D01*
X34189428Y-74217714D01*
X34116857Y-74362857D01*
X34044285Y-74435428D01*
X32665428Y-72113142D02*
X32665428Y-72838857D01*
X33391142Y-72911428D01*
X33318571Y-72838857D01*
X33246000Y-72693714D01*
X33246000Y-72330857D01*
X33318571Y-72185714D01*
X33391142Y-72113142D01*
X33536285Y-72040571D01*
X33899142Y-72040571D01*
X34044285Y-72113142D01*
X34116857Y-72185714D01*
X34189428Y-72330857D01*
X34189428Y-72693714D01*
X34116857Y-72838857D01*
X34044285Y-72911428D01*
%TO.C,U9*%
X5165428Y-33661142D02*
X6399142Y-33661142D01*
X6544285Y-33588571D01*
X6616857Y-33516000D01*
X6689428Y-33370857D01*
X6689428Y-33080571D01*
X6616857Y-32935428D01*
X6544285Y-32862857D01*
X6399142Y-32790285D01*
X5165428Y-32790285D01*
X6689428Y-31992000D02*
X6689428Y-31701714D01*
X6616857Y-31556571D01*
X6544285Y-31484000D01*
X6326571Y-31338857D01*
X6036285Y-31266285D01*
X5455714Y-31266285D01*
X5310571Y-31338857D01*
X5238000Y-31411428D01*
X5165428Y-31556571D01*
X5165428Y-31846857D01*
X5238000Y-31992000D01*
X5310571Y-32064571D01*
X5455714Y-32137142D01*
X5818571Y-32137142D01*
X5963714Y-32064571D01*
X6036285Y-31992000D01*
X6108857Y-31846857D01*
X6108857Y-31556571D01*
X6036285Y-31411428D01*
X5963714Y-31338857D01*
X5818571Y-31266285D01*
%TO.C,U57*%
X5165428Y-121886857D02*
X6399142Y-121886857D01*
X6544285Y-121814285D01*
X6616857Y-121741714D01*
X6689428Y-121596571D01*
X6689428Y-121306285D01*
X6616857Y-121161142D01*
X6544285Y-121088571D01*
X6399142Y-121016000D01*
X5165428Y-121016000D01*
X5165428Y-119564571D02*
X5165428Y-120290285D01*
X5891142Y-120362857D01*
X5818571Y-120290285D01*
X5746000Y-120145142D01*
X5746000Y-119782285D01*
X5818571Y-119637142D01*
X5891142Y-119564571D01*
X6036285Y-119492000D01*
X6399142Y-119492000D01*
X6544285Y-119564571D01*
X6616857Y-119637142D01*
X6689428Y-119782285D01*
X6689428Y-120145142D01*
X6616857Y-120290285D01*
X6544285Y-120362857D01*
X5165428Y-118984000D02*
X5165428Y-117968000D01*
X6689428Y-118621142D01*
%TO.C,U15*%
X88665428Y-34386857D02*
X89899142Y-34386857D01*
X90044285Y-34314285D01*
X90116857Y-34241714D01*
X90189428Y-34096571D01*
X90189428Y-33806285D01*
X90116857Y-33661142D01*
X90044285Y-33588571D01*
X89899142Y-33516000D01*
X88665428Y-33516000D01*
X90189428Y-31992000D02*
X90189428Y-32862857D01*
X90189428Y-32427428D02*
X88665428Y-32427428D01*
X88883142Y-32572571D01*
X89028285Y-32717714D01*
X89100857Y-32862857D01*
X88665428Y-30613142D02*
X88665428Y-31338857D01*
X89391142Y-31411428D01*
X89318571Y-31338857D01*
X89246000Y-31193714D01*
X89246000Y-30830857D01*
X89318571Y-30685714D01*
X89391142Y-30613142D01*
X89536285Y-30540571D01*
X89899142Y-30540571D01*
X90044285Y-30613142D01*
X90116857Y-30685714D01*
X90189428Y-30830857D01*
X90189428Y-31193714D01*
X90116857Y-31338857D01*
X90044285Y-31411428D01*
%TO.C,U54*%
X60665428Y-105886857D02*
X61899142Y-105886857D01*
X62044285Y-105814285D01*
X62116857Y-105741714D01*
X62189428Y-105596571D01*
X62189428Y-105306285D01*
X62116857Y-105161142D01*
X62044285Y-105088571D01*
X61899142Y-105016000D01*
X60665428Y-105016000D01*
X60665428Y-103564571D02*
X60665428Y-104290285D01*
X61391142Y-104362857D01*
X61318571Y-104290285D01*
X61246000Y-104145142D01*
X61246000Y-103782285D01*
X61318571Y-103637142D01*
X61391142Y-103564571D01*
X61536285Y-103492000D01*
X61899142Y-103492000D01*
X62044285Y-103564571D01*
X62116857Y-103637142D01*
X62189428Y-103782285D01*
X62189428Y-104145142D01*
X62116857Y-104290285D01*
X62044285Y-104362857D01*
X61173428Y-102185714D02*
X62189428Y-102185714D01*
X60592857Y-102548571D02*
X61681428Y-102911428D01*
X61681428Y-101968000D01*
%TO.C,U13*%
X60665428Y-34386857D02*
X61899142Y-34386857D01*
X62044285Y-34314285D01*
X62116857Y-34241714D01*
X62189428Y-34096571D01*
X62189428Y-33806285D01*
X62116857Y-33661142D01*
X62044285Y-33588571D01*
X61899142Y-33516000D01*
X60665428Y-33516000D01*
X62189428Y-31992000D02*
X62189428Y-32862857D01*
X62189428Y-32427428D02*
X60665428Y-32427428D01*
X60883142Y-32572571D01*
X61028285Y-32717714D01*
X61100857Y-32862857D01*
X60665428Y-31484000D02*
X60665428Y-30540571D01*
X61246000Y-31048571D01*
X61246000Y-30830857D01*
X61318571Y-30685714D01*
X61391142Y-30613142D01*
X61536285Y-30540571D01*
X61899142Y-30540571D01*
X62044285Y-30613142D01*
X62116857Y-30685714D01*
X62189428Y-30830857D01*
X62189428Y-31266285D01*
X62116857Y-31411428D01*
X62044285Y-31484000D01*
%TO.C,U52*%
X32665428Y-105886857D02*
X33899142Y-105886857D01*
X34044285Y-105814285D01*
X34116857Y-105741714D01*
X34189428Y-105596571D01*
X34189428Y-105306285D01*
X34116857Y-105161142D01*
X34044285Y-105088571D01*
X33899142Y-105016000D01*
X32665428Y-105016000D01*
X32665428Y-103564571D02*
X32665428Y-104290285D01*
X33391142Y-104362857D01*
X33318571Y-104290285D01*
X33246000Y-104145142D01*
X33246000Y-103782285D01*
X33318571Y-103637142D01*
X33391142Y-103564571D01*
X33536285Y-103492000D01*
X33899142Y-103492000D01*
X34044285Y-103564571D01*
X34116857Y-103637142D01*
X34189428Y-103782285D01*
X34189428Y-104145142D01*
X34116857Y-104290285D01*
X34044285Y-104362857D01*
X32810571Y-102911428D02*
X32738000Y-102838857D01*
X32665428Y-102693714D01*
X32665428Y-102330857D01*
X32738000Y-102185714D01*
X32810571Y-102113142D01*
X32955714Y-102040571D01*
X33100857Y-102040571D01*
X33318571Y-102113142D01*
X34189428Y-102984000D01*
X34189428Y-102040571D01*
%TO.C,U27*%
X32665428Y-62386857D02*
X33899142Y-62386857D01*
X34044285Y-62314285D01*
X34116857Y-62241714D01*
X34189428Y-62096571D01*
X34189428Y-61806285D01*
X34116857Y-61661142D01*
X34044285Y-61588571D01*
X33899142Y-61516000D01*
X32665428Y-61516000D01*
X32810571Y-60862857D02*
X32738000Y-60790285D01*
X32665428Y-60645142D01*
X32665428Y-60282285D01*
X32738000Y-60137142D01*
X32810571Y-60064571D01*
X32955714Y-59992000D01*
X33100857Y-59992000D01*
X33318571Y-60064571D01*
X34189428Y-60935428D01*
X34189428Y-59992000D01*
X32665428Y-59484000D02*
X32665428Y-58468000D01*
X34189428Y-59121142D01*
%TO.C,U55*%
X88665428Y-105886857D02*
X89899142Y-105886857D01*
X90044285Y-105814285D01*
X90116857Y-105741714D01*
X90189428Y-105596571D01*
X90189428Y-105306285D01*
X90116857Y-105161142D01*
X90044285Y-105088571D01*
X89899142Y-105016000D01*
X88665428Y-105016000D01*
X88665428Y-103564571D02*
X88665428Y-104290285D01*
X89391142Y-104362857D01*
X89318571Y-104290285D01*
X89246000Y-104145142D01*
X89246000Y-103782285D01*
X89318571Y-103637142D01*
X89391142Y-103564571D01*
X89536285Y-103492000D01*
X89899142Y-103492000D01*
X90044285Y-103564571D01*
X90116857Y-103637142D01*
X90189428Y-103782285D01*
X90189428Y-104145142D01*
X90116857Y-104290285D01*
X90044285Y-104362857D01*
X88665428Y-102113142D02*
X88665428Y-102838857D01*
X89391142Y-102911428D01*
X89318571Y-102838857D01*
X89246000Y-102693714D01*
X89246000Y-102330857D01*
X89318571Y-102185714D01*
X89391142Y-102113142D01*
X89536285Y-102040571D01*
X89899142Y-102040571D01*
X90044285Y-102113142D01*
X90116857Y-102185714D01*
X90189428Y-102330857D01*
X90189428Y-102693714D01*
X90116857Y-102838857D01*
X90044285Y-102911428D01*
%TO.C,U2*%
X18665428Y-19161142D02*
X19899142Y-19161142D01*
X20044285Y-19088571D01*
X20116857Y-19016000D01*
X20189428Y-18870857D01*
X20189428Y-18580571D01*
X20116857Y-18435428D01*
X20044285Y-18362857D01*
X19899142Y-18290285D01*
X18665428Y-18290285D01*
X18810571Y-17637142D02*
X18738000Y-17564571D01*
X18665428Y-17419428D01*
X18665428Y-17056571D01*
X18738000Y-16911428D01*
X18810571Y-16838857D01*
X18955714Y-16766285D01*
X19100857Y-16766285D01*
X19318571Y-16838857D01*
X20189428Y-17709714D01*
X20189428Y-16766285D01*
%TO.C,U33*%
X5165428Y-75886857D02*
X6399142Y-75886857D01*
X6544285Y-75814285D01*
X6616857Y-75741714D01*
X6689428Y-75596571D01*
X6689428Y-75306285D01*
X6616857Y-75161142D01*
X6544285Y-75088571D01*
X6399142Y-75016000D01*
X5165428Y-75016000D01*
X5165428Y-74435428D02*
X5165428Y-73492000D01*
X5746000Y-74000000D01*
X5746000Y-73782285D01*
X5818571Y-73637142D01*
X5891142Y-73564571D01*
X6036285Y-73492000D01*
X6399142Y-73492000D01*
X6544285Y-73564571D01*
X6616857Y-73637142D01*
X6689428Y-73782285D01*
X6689428Y-74217714D01*
X6616857Y-74362857D01*
X6544285Y-74435428D01*
X5165428Y-72984000D02*
X5165428Y-72040571D01*
X5746000Y-72548571D01*
X5746000Y-72330857D01*
X5818571Y-72185714D01*
X5891142Y-72113142D01*
X6036285Y-72040571D01*
X6399142Y-72040571D01*
X6544285Y-72113142D01*
X6616857Y-72185714D01*
X6689428Y-72330857D01*
X6689428Y-72766285D01*
X6616857Y-72911428D01*
X6544285Y-72984000D01*
%TO.C,U36*%
X32665428Y-75886857D02*
X33899142Y-75886857D01*
X34044285Y-75814285D01*
X34116857Y-75741714D01*
X34189428Y-75596571D01*
X34189428Y-75306285D01*
X34116857Y-75161142D01*
X34044285Y-75088571D01*
X33899142Y-75016000D01*
X32665428Y-75016000D01*
X32665428Y-74435428D02*
X32665428Y-73492000D01*
X33246000Y-74000000D01*
X33246000Y-73782285D01*
X33318571Y-73637142D01*
X33391142Y-73564571D01*
X33536285Y-73492000D01*
X33899142Y-73492000D01*
X34044285Y-73564571D01*
X34116857Y-73637142D01*
X34189428Y-73782285D01*
X34189428Y-74217714D01*
X34116857Y-74362857D01*
X34044285Y-74435428D01*
X32665428Y-72185714D02*
X32665428Y-72476000D01*
X32738000Y-72621142D01*
X32810571Y-72693714D01*
X33028285Y-72838857D01*
X33318571Y-72911428D01*
X33899142Y-72911428D01*
X34044285Y-72838857D01*
X34116857Y-72766285D01*
X34189428Y-72621142D01*
X34189428Y-72330857D01*
X34116857Y-72185714D01*
X34044285Y-72113142D01*
X33899142Y-72040571D01*
X33536285Y-72040571D01*
X33391142Y-72113142D01*
X33318571Y-72185714D01*
X33246000Y-72330857D01*
X33246000Y-72621142D01*
X33318571Y-72766285D01*
X33391142Y-72838857D01*
X33536285Y-72911428D01*
%TO.C,U40*%
X103165428Y-75886857D02*
X104399142Y-75886857D01*
X104544285Y-75814285D01*
X104616857Y-75741714D01*
X104689428Y-75596571D01*
X104689428Y-75306285D01*
X104616857Y-75161142D01*
X104544285Y-75088571D01*
X104399142Y-75016000D01*
X103165428Y-75016000D01*
X103673428Y-73637142D02*
X104689428Y-73637142D01*
X103092857Y-74000000D02*
X104181428Y-74362857D01*
X104181428Y-73419428D01*
X103165428Y-72548571D02*
X103165428Y-72403428D01*
X103238000Y-72258285D01*
X103310571Y-72185714D01*
X103455714Y-72113142D01*
X103746000Y-72040571D01*
X104108857Y-72040571D01*
X104399142Y-72113142D01*
X104544285Y-72185714D01*
X104616857Y-72258285D01*
X104689428Y-72403428D01*
X104689428Y-72548571D01*
X104616857Y-72693714D01*
X104544285Y-72766285D01*
X104399142Y-72838857D01*
X104108857Y-72911428D01*
X103746000Y-72911428D01*
X103455714Y-72838857D01*
X103310571Y-72766285D01*
X103238000Y-72693714D01*
X103165428Y-72548571D01*
%TO.C,U34*%
X18665428Y-75886857D02*
X19899142Y-75886857D01*
X20044285Y-75814285D01*
X20116857Y-75741714D01*
X20189428Y-75596571D01*
X20189428Y-75306285D01*
X20116857Y-75161142D01*
X20044285Y-75088571D01*
X19899142Y-75016000D01*
X18665428Y-75016000D01*
X18665428Y-74435428D02*
X18665428Y-73492000D01*
X19246000Y-74000000D01*
X19246000Y-73782285D01*
X19318571Y-73637142D01*
X19391142Y-73564571D01*
X19536285Y-73492000D01*
X19899142Y-73492000D01*
X20044285Y-73564571D01*
X20116857Y-73637142D01*
X20189428Y-73782285D01*
X20189428Y-74217714D01*
X20116857Y-74362857D01*
X20044285Y-74435428D01*
X19173428Y-72185714D02*
X20189428Y-72185714D01*
X18592857Y-72548571D02*
X19681428Y-72911428D01*
X19681428Y-71968000D01*
%TO.C,U41*%
X5165428Y-90886857D02*
X6399142Y-90886857D01*
X6544285Y-90814285D01*
X6616857Y-90741714D01*
X6689428Y-90596571D01*
X6689428Y-90306285D01*
X6616857Y-90161142D01*
X6544285Y-90088571D01*
X6399142Y-90016000D01*
X5165428Y-90016000D01*
X5673428Y-88637142D02*
X6689428Y-88637142D01*
X5092857Y-89000000D02*
X6181428Y-89362857D01*
X6181428Y-88419428D01*
X6689428Y-87040571D02*
X6689428Y-87911428D01*
X6689428Y-87476000D02*
X5165428Y-87476000D01*
X5383142Y-87621142D01*
X5528285Y-87766285D01*
X5600857Y-87911428D01*
%TO.C,U37*%
X60665428Y-75886857D02*
X61899142Y-75886857D01*
X62044285Y-75814285D01*
X62116857Y-75741714D01*
X62189428Y-75596571D01*
X62189428Y-75306285D01*
X62116857Y-75161142D01*
X62044285Y-75088571D01*
X61899142Y-75016000D01*
X60665428Y-75016000D01*
X60665428Y-74435428D02*
X60665428Y-73492000D01*
X61246000Y-74000000D01*
X61246000Y-73782285D01*
X61318571Y-73637142D01*
X61391142Y-73564571D01*
X61536285Y-73492000D01*
X61899142Y-73492000D01*
X62044285Y-73564571D01*
X62116857Y-73637142D01*
X62189428Y-73782285D01*
X62189428Y-74217714D01*
X62116857Y-74362857D01*
X62044285Y-74435428D01*
X60665428Y-72984000D02*
X60665428Y-71968000D01*
X62189428Y-72621142D01*
%TO.C,U31*%
X88665428Y-62386857D02*
X89899142Y-62386857D01*
X90044285Y-62314285D01*
X90116857Y-62241714D01*
X90189428Y-62096571D01*
X90189428Y-61806285D01*
X90116857Y-61661142D01*
X90044285Y-61588571D01*
X89899142Y-61516000D01*
X88665428Y-61516000D01*
X88665428Y-60935428D02*
X88665428Y-59992000D01*
X89246000Y-60500000D01*
X89246000Y-60282285D01*
X89318571Y-60137142D01*
X89391142Y-60064571D01*
X89536285Y-59992000D01*
X89899142Y-59992000D01*
X90044285Y-60064571D01*
X90116857Y-60137142D01*
X90189428Y-60282285D01*
X90189428Y-60717714D01*
X90116857Y-60862857D01*
X90044285Y-60935428D01*
X90189428Y-58540571D02*
X90189428Y-59411428D01*
X90189428Y-58976000D02*
X88665428Y-58976000D01*
X88883142Y-59121142D01*
X89028285Y-59266285D01*
X89100857Y-59411428D01*
%TO.C,U64*%
X103165428Y-121886857D02*
X104399142Y-121886857D01*
X104544285Y-121814285D01*
X104616857Y-121741714D01*
X104689428Y-121596571D01*
X104689428Y-121306285D01*
X104616857Y-121161142D01*
X104544285Y-121088571D01*
X104399142Y-121016000D01*
X103165428Y-121016000D01*
X103165428Y-119637142D02*
X103165428Y-119927428D01*
X103238000Y-120072571D01*
X103310571Y-120145142D01*
X103528285Y-120290285D01*
X103818571Y-120362857D01*
X104399142Y-120362857D01*
X104544285Y-120290285D01*
X104616857Y-120217714D01*
X104689428Y-120072571D01*
X104689428Y-119782285D01*
X104616857Y-119637142D01*
X104544285Y-119564571D01*
X104399142Y-119492000D01*
X104036285Y-119492000D01*
X103891142Y-119564571D01*
X103818571Y-119637142D01*
X103746000Y-119782285D01*
X103746000Y-120072571D01*
X103818571Y-120217714D01*
X103891142Y-120290285D01*
X104036285Y-120362857D01*
X103673428Y-118185714D02*
X104689428Y-118185714D01*
X103092857Y-118548571D02*
X104181428Y-118911428D01*
X104181428Y-117968000D01*
%TO.C,U4*%
X32338857Y-17165428D02*
X32338857Y-18399142D01*
X32411428Y-18544285D01*
X32484000Y-18616857D01*
X32629142Y-18689428D01*
X32919428Y-18689428D01*
X33064571Y-18616857D01*
X33137142Y-18544285D01*
X33209714Y-18399142D01*
X33209714Y-17165428D01*
X34588571Y-17673428D02*
X34588571Y-18689428D01*
X34225714Y-17092857D02*
X33862857Y-18181428D01*
X34806285Y-18181428D01*
%TO.C,U1*%
X5165428Y-19161142D02*
X6399142Y-19161142D01*
X6544285Y-19088571D01*
X6616857Y-19016000D01*
X6689428Y-18870857D01*
X6689428Y-18580571D01*
X6616857Y-18435428D01*
X6544285Y-18362857D01*
X6399142Y-18290285D01*
X5165428Y-18290285D01*
X6689428Y-16766285D02*
X6689428Y-17637142D01*
X6689428Y-17201714D02*
X5165428Y-17201714D01*
X5383142Y-17346857D01*
X5528285Y-17492000D01*
X5600857Y-17637142D01*
%TO.C,U29*%
X60665428Y-62386857D02*
X61899142Y-62386857D01*
X62044285Y-62314285D01*
X62116857Y-62241714D01*
X62189428Y-62096571D01*
X62189428Y-61806285D01*
X62116857Y-61661142D01*
X62044285Y-61588571D01*
X61899142Y-61516000D01*
X60665428Y-61516000D01*
X60810571Y-60862857D02*
X60738000Y-60790285D01*
X60665428Y-60645142D01*
X60665428Y-60282285D01*
X60738000Y-60137142D01*
X60810571Y-60064571D01*
X60955714Y-59992000D01*
X61100857Y-59992000D01*
X61318571Y-60064571D01*
X62189428Y-60935428D01*
X62189428Y-59992000D01*
X62189428Y-59266285D02*
X62189428Y-58976000D01*
X62116857Y-58830857D01*
X62044285Y-58758285D01*
X61826571Y-58613142D01*
X61536285Y-58540571D01*
X60955714Y-58540571D01*
X60810571Y-58613142D01*
X60738000Y-58685714D01*
X60665428Y-58830857D01*
X60665428Y-59121142D01*
X60738000Y-59266285D01*
X60810571Y-59338857D01*
X60955714Y-59411428D01*
X61318571Y-59411428D01*
X61463714Y-59338857D01*
X61536285Y-59266285D01*
X61608857Y-59121142D01*
X61608857Y-58830857D01*
X61536285Y-58685714D01*
X61463714Y-58613142D01*
X61318571Y-58540571D01*
%TO.C,U26*%
X18665428Y-62386857D02*
X19899142Y-62386857D01*
X20044285Y-62314285D01*
X20116857Y-62241714D01*
X20189428Y-62096571D01*
X20189428Y-61806285D01*
X20116857Y-61661142D01*
X20044285Y-61588571D01*
X19899142Y-61516000D01*
X18665428Y-61516000D01*
X18810571Y-60862857D02*
X18738000Y-60790285D01*
X18665428Y-60645142D01*
X18665428Y-60282285D01*
X18738000Y-60137142D01*
X18810571Y-60064571D01*
X18955714Y-59992000D01*
X19100857Y-59992000D01*
X19318571Y-60064571D01*
X20189428Y-60935428D01*
X20189428Y-59992000D01*
X18665428Y-58685714D02*
X18665428Y-58976000D01*
X18738000Y-59121142D01*
X18810571Y-59193714D01*
X19028285Y-59338857D01*
X19318571Y-59411428D01*
X19899142Y-59411428D01*
X20044285Y-59338857D01*
X20116857Y-59266285D01*
X20189428Y-59121142D01*
X20189428Y-58830857D01*
X20116857Y-58685714D01*
X20044285Y-58613142D01*
X19899142Y-58540571D01*
X19536285Y-58540571D01*
X19391142Y-58613142D01*
X19318571Y-58685714D01*
X19246000Y-58830857D01*
X19246000Y-59121142D01*
X19318571Y-59266285D01*
X19391142Y-59338857D01*
X19536285Y-59411428D01*
%TO.C,U10*%
X18665428Y-34386857D02*
X19899142Y-34386857D01*
X20044285Y-34314285D01*
X20116857Y-34241714D01*
X20189428Y-34096571D01*
X20189428Y-33806285D01*
X20116857Y-33661142D01*
X20044285Y-33588571D01*
X19899142Y-33516000D01*
X18665428Y-33516000D01*
X20189428Y-31992000D02*
X20189428Y-32862857D01*
X20189428Y-32427428D02*
X18665428Y-32427428D01*
X18883142Y-32572571D01*
X19028285Y-32717714D01*
X19100857Y-32862857D01*
X18665428Y-31048571D02*
X18665428Y-30903428D01*
X18738000Y-30758285D01*
X18810571Y-30685714D01*
X18955714Y-30613142D01*
X19246000Y-30540571D01*
X19608857Y-30540571D01*
X19899142Y-30613142D01*
X20044285Y-30685714D01*
X20116857Y-30758285D01*
X20189428Y-30903428D01*
X20189428Y-31048571D01*
X20116857Y-31193714D01*
X20044285Y-31266285D01*
X19899142Y-31338857D01*
X19608857Y-31411428D01*
X19246000Y-31411428D01*
X18955714Y-31338857D01*
X18810571Y-31266285D01*
X18738000Y-31193714D01*
X18665428Y-31048571D01*
%TO.C,U60*%
X32665428Y-121886857D02*
X33899142Y-121886857D01*
X34044285Y-121814285D01*
X34116857Y-121741714D01*
X34189428Y-121596571D01*
X34189428Y-121306285D01*
X34116857Y-121161142D01*
X34044285Y-121088571D01*
X33899142Y-121016000D01*
X32665428Y-121016000D01*
X32665428Y-119637142D02*
X32665428Y-119927428D01*
X32738000Y-120072571D01*
X32810571Y-120145142D01*
X33028285Y-120290285D01*
X33318571Y-120362857D01*
X33899142Y-120362857D01*
X34044285Y-120290285D01*
X34116857Y-120217714D01*
X34189428Y-120072571D01*
X34189428Y-119782285D01*
X34116857Y-119637142D01*
X34044285Y-119564571D01*
X33899142Y-119492000D01*
X33536285Y-119492000D01*
X33391142Y-119564571D01*
X33318571Y-119637142D01*
X33246000Y-119782285D01*
X33246000Y-120072571D01*
X33318571Y-120217714D01*
X33391142Y-120290285D01*
X33536285Y-120362857D01*
X32665428Y-118548571D02*
X32665428Y-118403428D01*
X32738000Y-118258285D01*
X32810571Y-118185714D01*
X32955714Y-118113142D01*
X33246000Y-118040571D01*
X33608857Y-118040571D01*
X33899142Y-118113142D01*
X34044285Y-118185714D01*
X34116857Y-118258285D01*
X34189428Y-118403428D01*
X34189428Y-118548571D01*
X34116857Y-118693714D01*
X34044285Y-118766285D01*
X33899142Y-118838857D01*
X33608857Y-118911428D01*
X33246000Y-118911428D01*
X32955714Y-118838857D01*
X32810571Y-118766285D01*
X32738000Y-118693714D01*
X32665428Y-118548571D01*
%TO.C,U12*%
X32665428Y-34386857D02*
X33899142Y-34386857D01*
X34044285Y-34314285D01*
X34116857Y-34241714D01*
X34189428Y-34096571D01*
X34189428Y-33806285D01*
X34116857Y-33661142D01*
X34044285Y-33588571D01*
X33899142Y-33516000D01*
X32665428Y-33516000D01*
X34189428Y-31992000D02*
X34189428Y-32862857D01*
X34189428Y-32427428D02*
X32665428Y-32427428D01*
X32883142Y-32572571D01*
X33028285Y-32717714D01*
X33100857Y-32862857D01*
X32810571Y-31411428D02*
X32738000Y-31338857D01*
X32665428Y-31193714D01*
X32665428Y-30830857D01*
X32738000Y-30685714D01*
X32810571Y-30613142D01*
X32955714Y-30540571D01*
X33100857Y-30540571D01*
X33318571Y-30613142D01*
X34189428Y-31484000D01*
X34189428Y-30540571D01*
%TO.C,U3*%
X32665428Y-19161142D02*
X33899142Y-19161142D01*
X34044285Y-19088571D01*
X34116857Y-19016000D01*
X34189428Y-18870857D01*
X34189428Y-18580571D01*
X34116857Y-18435428D01*
X34044285Y-18362857D01*
X33899142Y-18290285D01*
X32665428Y-18290285D01*
X32665428Y-17709714D02*
X32665428Y-16766285D01*
X33246000Y-17274285D01*
X33246000Y-17056571D01*
X33318571Y-16911428D01*
X33391142Y-16838857D01*
X33536285Y-16766285D01*
X33899142Y-16766285D01*
X34044285Y-16838857D01*
X34116857Y-16911428D01*
X34189428Y-17056571D01*
X34189428Y-17492000D01*
X34116857Y-17637142D01*
X34044285Y-17709714D01*
%TO.C,U32*%
X103165428Y-62386857D02*
X104399142Y-62386857D01*
X104544285Y-62314285D01*
X104616857Y-62241714D01*
X104689428Y-62096571D01*
X104689428Y-61806285D01*
X104616857Y-61661142D01*
X104544285Y-61588571D01*
X104399142Y-61516000D01*
X103165428Y-61516000D01*
X103165428Y-60935428D02*
X103165428Y-59992000D01*
X103746000Y-60500000D01*
X103746000Y-60282285D01*
X103818571Y-60137142D01*
X103891142Y-60064571D01*
X104036285Y-59992000D01*
X104399142Y-59992000D01*
X104544285Y-60064571D01*
X104616857Y-60137142D01*
X104689428Y-60282285D01*
X104689428Y-60717714D01*
X104616857Y-60862857D01*
X104544285Y-60935428D01*
X103310571Y-59411428D02*
X103238000Y-59338857D01*
X103165428Y-59193714D01*
X103165428Y-58830857D01*
X103238000Y-58685714D01*
X103310571Y-58613142D01*
X103455714Y-58540571D01*
X103600857Y-58540571D01*
X103818571Y-58613142D01*
X104689428Y-59484000D01*
X104689428Y-58540571D01*
%TO.C,REF\u002A\u002A*%
X53666666Y-125952380D02*
X53333333Y-125476190D01*
X53095238Y-125952380D02*
X53095238Y-124952380D01*
X53476190Y-124952380D01*
X53571428Y-125000000D01*
X53619047Y-125047619D01*
X53666666Y-125142857D01*
X53666666Y-125285714D01*
X53619047Y-125380952D01*
X53571428Y-125428571D01*
X53476190Y-125476190D01*
X53095238Y-125476190D01*
X54095238Y-125428571D02*
X54428571Y-125428571D01*
X54571428Y-125952380D02*
X54095238Y-125952380D01*
X54095238Y-124952380D01*
X54571428Y-124952380D01*
X55333333Y-125428571D02*
X55000000Y-125428571D01*
X55000000Y-125952380D02*
X55000000Y-124952380D01*
X55476190Y-124952380D01*
X56000000Y-124952380D02*
X56000000Y-125190476D01*
X55761904Y-125095238D02*
X56000000Y-125190476D01*
X56238095Y-125095238D01*
X55857142Y-125380952D02*
X56000000Y-125190476D01*
X56142857Y-125380952D01*
X56761904Y-124952380D02*
X56761904Y-125190476D01*
X56523809Y-125095238D02*
X56761904Y-125190476D01*
X57000000Y-125095238D01*
X56619047Y-125380952D02*
X56761904Y-125190476D01*
X56904761Y-125380952D01*
%TO.C,U47*%
X88665428Y-90886857D02*
X89899142Y-90886857D01*
X90044285Y-90814285D01*
X90116857Y-90741714D01*
X90189428Y-90596571D01*
X90189428Y-90306285D01*
X90116857Y-90161142D01*
X90044285Y-90088571D01*
X89899142Y-90016000D01*
X88665428Y-90016000D01*
X89173428Y-88637142D02*
X90189428Y-88637142D01*
X88592857Y-89000000D02*
X89681428Y-89362857D01*
X89681428Y-88419428D01*
X88665428Y-87984000D02*
X88665428Y-86968000D01*
X90189428Y-87621142D01*
%TO.C,U18*%
X18665428Y-47886857D02*
X19899142Y-47886857D01*
X20044285Y-47814285D01*
X20116857Y-47741714D01*
X20189428Y-47596571D01*
X20189428Y-47306285D01*
X20116857Y-47161142D01*
X20044285Y-47088571D01*
X19899142Y-47016000D01*
X18665428Y-47016000D01*
X20189428Y-45492000D02*
X20189428Y-46362857D01*
X20189428Y-45927428D02*
X18665428Y-45927428D01*
X18883142Y-46072571D01*
X19028285Y-46217714D01*
X19100857Y-46362857D01*
X19318571Y-44621142D02*
X19246000Y-44766285D01*
X19173428Y-44838857D01*
X19028285Y-44911428D01*
X18955714Y-44911428D01*
X18810571Y-44838857D01*
X18738000Y-44766285D01*
X18665428Y-44621142D01*
X18665428Y-44330857D01*
X18738000Y-44185714D01*
X18810571Y-44113142D01*
X18955714Y-44040571D01*
X19028285Y-44040571D01*
X19173428Y-44113142D01*
X19246000Y-44185714D01*
X19318571Y-44330857D01*
X19318571Y-44621142D01*
X19391142Y-44766285D01*
X19463714Y-44838857D01*
X19608857Y-44911428D01*
X19899142Y-44911428D01*
X20044285Y-44838857D01*
X20116857Y-44766285D01*
X20189428Y-44621142D01*
X20189428Y-44330857D01*
X20116857Y-44185714D01*
X20044285Y-44113142D01*
X19899142Y-44040571D01*
X19608857Y-44040571D01*
X19463714Y-44113142D01*
X19391142Y-44185714D01*
X19318571Y-44330857D01*
D11*
%TO.C,U45*%
X60001400Y-89000000D02*
X62998600Y-89000000D01*
X61500000Y-87501400D02*
X61500000Y-90498600D01*
X62559670Y-89000000D02*
G75*
G03*
X62559670Y-89000000I-1059670J0D01*
G01*
%TO.C,U24*%
X102501400Y-46000000D02*
X105498600Y-46000000D01*
X104000000Y-44501400D02*
X104000000Y-47498600D01*
X105059670Y-46000000D02*
G75*
G03*
X105059670Y-46000000I-1059670J0D01*
G01*
%TO.C,U23*%
X88001400Y-46000000D02*
X90998600Y-46000000D01*
X89500000Y-44501400D02*
X89500000Y-47498600D01*
X90559670Y-46000000D02*
G75*
G03*
X90559670Y-46000000I-1059670J0D01*
G01*
%TO.C,U20*%
X47500000Y-44501400D02*
X47500000Y-47498600D01*
X46001400Y-46000000D02*
X48998600Y-46000000D01*
X48559670Y-46000000D02*
G75*
G03*
X48559670Y-46000000I-1059670J0D01*
G01*
%TO.C,U28*%
X46001400Y-60500000D02*
X48998600Y-60500000D01*
X47500000Y-59001400D02*
X47500000Y-61998600D01*
X48559670Y-60500000D02*
G75*
G03*
X48559670Y-60500000I-1059670J0D01*
G01*
D12*
%TO.C,REF\u002A\u002A*%
X60000000Y-7000000D02*
G75*
G03*
X60000000Y-7000000I-5500000J0D01*
G01*
D11*
%TO.C,U8*%
X102501400Y-18000000D02*
X105498600Y-18000000D01*
X104000000Y-16501400D02*
X104000000Y-19498600D01*
X105059670Y-18000000D02*
G75*
G03*
X105059670Y-18000000I-1059670J0D01*
G01*
%TO.C,U16*%
X102501400Y-32500000D02*
X105498600Y-32500000D01*
X104000000Y-31001400D02*
X104000000Y-33998600D01*
X105059670Y-32500000D02*
G75*
G03*
X105059670Y-32500000I-1059670J0D01*
G01*
%TO.C,U59*%
X32001400Y-120000000D02*
X34998600Y-120000000D01*
X33500000Y-118501400D02*
X33500000Y-121498600D01*
X34559670Y-120000000D02*
G75*
G03*
X34559670Y-120000000I-1059670J0D01*
G01*
%TO.C,U7*%
X88001400Y-18000000D02*
X90998600Y-18000000D01*
X89500000Y-16501400D02*
X89500000Y-19498600D01*
X90559670Y-18000000D02*
G75*
G03*
X90559670Y-18000000I-1059670J0D01*
G01*
%TO.C,U53*%
X61500000Y-102501400D02*
X61500000Y-105498600D01*
X60001400Y-104000000D02*
X62998600Y-104000000D01*
X62559670Y-104000000D02*
G75*
G03*
X62559670Y-104000000I-1059670J0D01*
G01*
%TO.C,U51*%
X32001400Y-104000000D02*
X34998600Y-104000000D01*
X33500000Y-102501400D02*
X33500000Y-105498600D01*
X34559670Y-104000000D02*
G75*
G03*
X34559670Y-104000000I-1059670J0D01*
G01*
%TO.C,U62*%
X74001400Y-120000000D02*
X76998600Y-120000000D01*
X75500000Y-118501400D02*
X75500000Y-121498600D01*
X76559670Y-120000000D02*
G75*
G03*
X76559670Y-120000000I-1059670J0D01*
G01*
%TO.C,U6*%
X74001400Y-18000000D02*
X76998600Y-18000000D01*
X75500000Y-16501400D02*
X75500000Y-19498600D01*
X76559670Y-18000000D02*
G75*
G03*
X76559670Y-18000000I-1059670J0D01*
G01*
%TO.C,U17*%
X4501400Y-46000000D02*
X7498600Y-46000000D01*
X6000000Y-44501400D02*
X6000000Y-47498600D01*
X7059670Y-46000000D02*
G75*
G03*
X7059670Y-46000000I-1059670J0D01*
G01*
%TO.C,U22*%
X75500000Y-44501400D02*
X75500000Y-47498600D01*
X74001400Y-46000000D02*
X76998600Y-46000000D01*
X76559670Y-46000000D02*
G75*
G03*
X76559670Y-46000000I-1059670J0D01*
G01*
%TO.C,U61*%
X60001400Y-120000000D02*
X62998600Y-120000000D01*
X61500000Y-118501400D02*
X61500000Y-121498600D01*
X62559670Y-120000000D02*
G75*
G03*
X62559670Y-120000000I-1059670J0D01*
G01*
%TO.C,U25*%
X4501400Y-60500000D02*
X7498600Y-60500000D01*
X6000000Y-59001400D02*
X6000000Y-61998600D01*
X7059670Y-60500000D02*
G75*
G03*
X7059670Y-60500000I-1059670J0D01*
G01*
%TO.C,U63*%
X88001400Y-120000000D02*
X90998600Y-120000000D01*
X89500000Y-118501400D02*
X89500000Y-121498600D01*
X90559670Y-120000000D02*
G75*
G03*
X90559670Y-120000000I-1059670J0D01*
G01*
%TO.C,U43*%
X32001400Y-89000000D02*
X34998600Y-89000000D01*
X33500000Y-87501400D02*
X33500000Y-90498600D01*
X34559670Y-89000000D02*
G75*
G03*
X34559670Y-89000000I-1059670J0D01*
G01*
%TO.C,U49*%
X4501400Y-104000000D02*
X7498600Y-104000000D01*
X6000000Y-102501400D02*
X6000000Y-105498600D01*
X7059670Y-104000000D02*
G75*
G03*
X7059670Y-104000000I-1059670J0D01*
G01*
%TO.C,U14*%
X74001400Y-32500000D02*
X76998600Y-32500000D01*
X75500000Y-31001400D02*
X75500000Y-33998600D01*
X76559670Y-32500000D02*
G75*
G03*
X76559670Y-32500000I-1059670J0D01*
G01*
%TO.C,U44*%
X47500000Y-87501400D02*
X47500000Y-90498600D01*
X46001400Y-89000000D02*
X48998600Y-89000000D01*
X48559670Y-89000000D02*
G75*
G03*
X48559670Y-89000000I-1059670J0D01*
G01*
%TO.C,U48*%
X102501400Y-89000000D02*
X105498600Y-89000000D01*
X104000000Y-87501400D02*
X104000000Y-90498600D01*
X105059670Y-89000000D02*
G75*
G03*
X105059670Y-89000000I-1059670J0D01*
G01*
%TO.C,U30*%
X75500000Y-59001400D02*
X75500000Y-61998600D01*
X74001400Y-60500000D02*
X76998600Y-60500000D01*
X76559670Y-60500000D02*
G75*
G03*
X76559670Y-60500000I-1059670J0D01*
G01*
%TO.C,U11*%
X32001400Y-32500000D02*
X34998600Y-32500000D01*
X33500000Y-31001400D02*
X33500000Y-33998600D01*
X34559670Y-32500000D02*
G75*
G03*
X34559670Y-32500000I-1059670J0D01*
G01*
%TO.C,U46*%
X74001400Y-89000000D02*
X76998600Y-89000000D01*
X75500000Y-87501400D02*
X75500000Y-90498600D01*
X76559670Y-89000000D02*
G75*
G03*
X76559670Y-89000000I-1059670J0D01*
G01*
%TO.C,U39*%
X88001400Y-74000000D02*
X90998600Y-74000000D01*
X89500000Y-72501400D02*
X89500000Y-75498600D01*
X90559670Y-74000000D02*
G75*
G03*
X90559670Y-74000000I-1059670J0D01*
G01*
%TO.C,U42*%
X19500000Y-87501400D02*
X19500000Y-90498600D01*
X18001400Y-89000000D02*
X20998600Y-89000000D01*
X20559670Y-89000000D02*
G75*
G03*
X20559670Y-89000000I-1059670J0D01*
G01*
%TO.C,U38*%
X75500000Y-72501400D02*
X75500000Y-75498600D01*
X74001400Y-74000000D02*
X76998600Y-74000000D01*
X76559670Y-74000000D02*
G75*
G03*
X76559670Y-74000000I-1059670J0D01*
G01*
%TO.C,U58*%
X19500000Y-118501400D02*
X19500000Y-121498600D01*
X18001400Y-120000000D02*
X20998600Y-120000000D01*
X20559670Y-120000000D02*
G75*
G03*
X20559670Y-120000000I-1059670J0D01*
G01*
%TO.C,U5*%
X61500000Y-16501400D02*
X61500000Y-19498600D01*
X60001400Y-18000000D02*
X62998600Y-18000000D01*
X62559670Y-18000000D02*
G75*
G03*
X62559670Y-18000000I-1059670J0D01*
G01*
%TO.C,U50*%
X18001400Y-104000000D02*
X20998600Y-104000000D01*
X19500000Y-102501400D02*
X19500000Y-105498600D01*
X20559670Y-104000000D02*
G75*
G03*
X20559670Y-104000000I-1059670J0D01*
G01*
%TO.C,U19*%
X33500000Y-44501400D02*
X33500000Y-47498600D01*
X32001400Y-46000000D02*
X34998600Y-46000000D01*
X34559670Y-46000000D02*
G75*
G03*
X34559670Y-46000000I-1059670J0D01*
G01*
%TO.C,U21*%
X60001400Y-46000000D02*
X62998600Y-46000000D01*
X61500000Y-44501400D02*
X61500000Y-47498600D01*
X62559670Y-46000000D02*
G75*
G03*
X62559670Y-46000000I-1059670J0D01*
G01*
%TO.C,U56*%
X102501400Y-104000000D02*
X105498600Y-104000000D01*
X104000000Y-102501400D02*
X104000000Y-105498600D01*
X105059670Y-104000000D02*
G75*
G03*
X105059670Y-104000000I-1059670J0D01*
G01*
%TO.C,U35*%
X33500000Y-72501400D02*
X33500000Y-75498600D01*
X32001400Y-74000000D02*
X34998600Y-74000000D01*
X34559670Y-74000000D02*
G75*
G03*
X34559670Y-74000000I-1059670J0D01*
G01*
%TO.C,U9*%
X6000000Y-31001400D02*
X6000000Y-33998600D01*
X4501400Y-32500000D02*
X7498600Y-32500000D01*
X7059670Y-32500000D02*
G75*
G03*
X7059670Y-32500000I-1059670J0D01*
G01*
%TO.C,U57*%
X6000000Y-118501400D02*
X6000000Y-121498600D01*
X4501400Y-120000000D02*
X7498600Y-120000000D01*
X7059670Y-120000000D02*
G75*
G03*
X7059670Y-120000000I-1059670J0D01*
G01*
%TO.C,U15*%
X88001400Y-32500000D02*
X90998600Y-32500000D01*
X89500000Y-31001400D02*
X89500000Y-33998600D01*
X90559670Y-32500000D02*
G75*
G03*
X90559670Y-32500000I-1059670J0D01*
G01*
%TO.C,U54*%
X74001400Y-104000000D02*
X76998600Y-104000000D01*
X75500000Y-102501400D02*
X75500000Y-105498600D01*
X76559670Y-104000000D02*
G75*
G03*
X76559670Y-104000000I-1059670J0D01*
G01*
%TO.C,U13*%
X61500000Y-31001400D02*
X61500000Y-33998600D01*
X60001400Y-32500000D02*
X62998600Y-32500000D01*
X62559670Y-32500000D02*
G75*
G03*
X62559670Y-32500000I-1059670J0D01*
G01*
%TO.C,U52*%
X46001400Y-104000000D02*
X48998600Y-104000000D01*
X47500000Y-102501400D02*
X47500000Y-105498600D01*
X48559670Y-104000000D02*
G75*
G03*
X48559670Y-104000000I-1059670J0D01*
G01*
%TO.C,U27*%
X32001400Y-60500000D02*
X34998600Y-60500000D01*
X33500000Y-59001400D02*
X33500000Y-61998600D01*
X34559670Y-60500000D02*
G75*
G03*
X34559670Y-60500000I-1059670J0D01*
G01*
%TO.C,U55*%
X88001400Y-104000000D02*
X90998600Y-104000000D01*
X89500000Y-102501400D02*
X89500000Y-105498600D01*
X90559670Y-104000000D02*
G75*
G03*
X90559670Y-104000000I-1059670J0D01*
G01*
%TO.C,U2*%
X18001400Y-18000000D02*
X20998600Y-18000000D01*
X19500000Y-16501400D02*
X19500000Y-19498600D01*
X20559670Y-18000000D02*
G75*
G03*
X20559670Y-18000000I-1059670J0D01*
G01*
%TO.C,U33*%
X6000000Y-72501400D02*
X6000000Y-75498600D01*
X4501400Y-74000000D02*
X7498600Y-74000000D01*
X7059670Y-74000000D02*
G75*
G03*
X7059670Y-74000000I-1059670J0D01*
G01*
%TO.C,U36*%
X47500000Y-72501400D02*
X47500000Y-75498600D01*
X46001400Y-74000000D02*
X48998600Y-74000000D01*
X48559670Y-74000000D02*
G75*
G03*
X48559670Y-74000000I-1059670J0D01*
G01*
%TO.C,U40*%
X102501400Y-74000000D02*
X105498600Y-74000000D01*
X104000000Y-72501400D02*
X104000000Y-75498600D01*
X105059670Y-74000000D02*
G75*
G03*
X105059670Y-74000000I-1059670J0D01*
G01*
%TO.C,U34*%
X18001400Y-74000000D02*
X20998600Y-74000000D01*
X19500000Y-72501400D02*
X19500000Y-75498600D01*
X20559670Y-74000000D02*
G75*
G03*
X20559670Y-74000000I-1059670J0D01*
G01*
%TO.C,U41*%
X4501400Y-89000000D02*
X7498600Y-89000000D01*
X6000000Y-87501400D02*
X6000000Y-90498600D01*
X7059670Y-89000000D02*
G75*
G03*
X7059670Y-89000000I-1059670J0D01*
G01*
%TO.C,U37*%
X61500000Y-72501400D02*
X61500000Y-75498600D01*
X60001400Y-74000000D02*
X62998600Y-74000000D01*
X62559670Y-74000000D02*
G75*
G03*
X62559670Y-74000000I-1059670J0D01*
G01*
%TO.C,U31*%
X89500000Y-59001400D02*
X89500000Y-61998600D01*
X88001400Y-60500000D02*
X90998600Y-60500000D01*
X90559670Y-60500000D02*
G75*
G03*
X90559670Y-60500000I-1059670J0D01*
G01*
%TO.C,U64*%
X102501400Y-120000000D02*
X105498600Y-120000000D01*
X104000000Y-118501400D02*
X104000000Y-121498600D01*
X105059670Y-120000000D02*
G75*
G03*
X105059670Y-120000000I-1059670J0D01*
G01*
%TO.C,U4*%
X47500000Y-16501400D02*
X47500000Y-19498600D01*
X46001400Y-18000000D02*
X48998600Y-18000000D01*
X48559670Y-18000000D02*
G75*
G03*
X48559670Y-18000000I-1059670J0D01*
G01*
%TO.C,U1*%
X4501400Y-18000000D02*
X7498600Y-18000000D01*
X6000000Y-16501400D02*
X6000000Y-19498600D01*
X7059670Y-18000000D02*
G75*
G03*
X7059670Y-18000000I-1059670J0D01*
G01*
%TO.C,U29*%
X61500000Y-59001400D02*
X61500000Y-61998600D01*
X60001400Y-60500000D02*
X62998600Y-60500000D01*
X62559670Y-60500000D02*
G75*
G03*
X62559670Y-60500000I-1059670J0D01*
G01*
%TO.C,U26*%
X18001400Y-60500000D02*
X20998600Y-60500000D01*
X19500000Y-59001400D02*
X19500000Y-61998600D01*
X20559670Y-60500000D02*
G75*
G03*
X20559670Y-60500000I-1059670J0D01*
G01*
%TO.C,U10*%
X18001400Y-32500000D02*
X20998600Y-32500000D01*
X19500000Y-31001400D02*
X19500000Y-33998600D01*
X20559670Y-32500000D02*
G75*
G03*
X20559670Y-32500000I-1059670J0D01*
G01*
%TO.C,U60*%
X46001400Y-120000000D02*
X48998600Y-120000000D01*
X47500000Y-118501400D02*
X47500000Y-121498600D01*
X48559670Y-120000000D02*
G75*
G03*
X48559670Y-120000000I-1059670J0D01*
G01*
%TO.C,U12*%
X46001400Y-32500000D02*
X48998600Y-32500000D01*
X47500000Y-31001400D02*
X47500000Y-33998600D01*
X48559670Y-32500000D02*
G75*
G03*
X48559670Y-32500000I-1059670J0D01*
G01*
%TO.C,U3*%
X32001400Y-18000000D02*
X34998600Y-18000000D01*
X33500000Y-16501400D02*
X33500000Y-19498600D01*
X34559670Y-18000000D02*
G75*
G03*
X34559670Y-18000000I-1059670J0D01*
G01*
%TO.C,U32*%
X104000000Y-59001400D02*
X104000000Y-61998600D01*
X102501400Y-60500000D02*
X105498600Y-60500000D01*
X105059670Y-60500000D02*
G75*
G03*
X105059670Y-60500000I-1059670J0D01*
G01*
D12*
%TO.C,REF\u002A\u002A*%
X60500000Y-132000000D02*
G75*
G03*
X60500000Y-132000000I-5500000J0D01*
G01*
D11*
%TO.C,U47*%
X89500000Y-87501400D02*
X89500000Y-90498600D01*
X88001400Y-89000000D02*
X90998600Y-89000000D01*
X90559670Y-89000000D02*
G75*
G03*
X90559670Y-89000000I-1059670J0D01*
G01*
%TO.C,U18*%
X18001400Y-46000000D02*
X20998600Y-46000000D01*
X19500000Y-44501400D02*
X19500000Y-47498600D01*
X20559670Y-46000000D02*
G75*
G03*
X20559670Y-46000000I-1059670J0D01*
G01*
%TD*%
M02*
