M48
; DRILL file {KiCad (5.99.0-10282-g296a9df530)} date Thu Aug 12 07:58:29 2021
; FORMAT={-:-/ absolute / inch / decimal}
; #@! TF.CreationDate,2021-08-12T07:58:29+00:00
; #@! TF.GenerationSoftware,Kicad,Pcbnew,(5.99.0-10282-g296a9df530)
; #@! TF.FileFunction,Plated,1,2,PTH
FMAT,2
INCH
; #@! TA.AperFunction,Plated,PTH,ComponentDrill
T1C0.0400
; #@! TA.AperFunction,Plated,PTH,ComponentDrill
T2C0.2402
%
G90
G05
T1
X0.1044Y-0.5769
X0.1044Y-0.8405
X0.1044Y-1.1477
X0.1044Y-1.4113
X0.1044Y-1.6792
X0.1044Y-1.9428
X0.1044Y-2.2501
X0.1044Y-2.5137
X0.1044Y-2.7816
X0.1044Y-3.0452
X0.1044Y-3.3721
X0.1044Y-3.6357
X0.1044Y-3.9627
X0.1044Y-4.2263
X0.1044Y-4.5926
X0.1044Y-4.8562
X0.2362Y-0.5217
X0.2362Y-0.8957
X0.2362Y-1.0925
X0.2362Y-1.4665
X0.2362Y-1.624
X0.2362Y-1.998
X0.2362Y-2.1949
X0.2362Y-2.5689
X0.2362Y-2.7264
X0.2362Y-3.1004
X0.2362Y-3.3169
X0.2362Y-3.6909
X0.2362Y-3.9075
X0.2362Y-4.2815
X0.2362Y-4.5374
X0.2362Y-4.9114
X0.368Y-0.5769
X0.368Y-0.8405
X0.368Y-1.1477
X0.368Y-1.4113
X0.368Y-1.6792
X0.368Y-1.9428
X0.368Y-2.2501
X0.368Y-2.5137
X0.368Y-2.7816
X0.368Y-3.0452
X0.368Y-3.3721
X0.368Y-3.6357
X0.368Y-3.9627
X0.368Y-4.2263
X0.368Y-4.5926
X0.368Y-4.8562
X0.6359Y-0.5769
X0.6359Y-0.8405
X0.6359Y-1.1477
X0.6359Y-1.4113
X0.6359Y-1.6792
X0.6359Y-1.9428
X0.6359Y-2.2501
X0.6359Y-2.5137
X0.6359Y-2.7816
X0.6359Y-3.0452
X0.6359Y-3.3721
X0.6359Y-3.6357
X0.6359Y-3.9627
X0.6359Y-4.2263
X0.6359Y-4.5926
X0.6359Y-4.8562
X0.7677Y-0.5217
X0.7677Y-0.8957
X0.7677Y-1.0925
X0.7677Y-1.4665
X0.7677Y-1.624
X0.7677Y-1.998
X0.7677Y-2.1949
X0.7677Y-2.5689
X0.7677Y-2.7264
X0.7677Y-3.1004
X0.7677Y-3.3169
X0.7677Y-3.6909
X0.7677Y-3.9075
X0.7677Y-4.2815
X0.7677Y-4.5374
X0.7677Y-4.9114
X0.8995Y-0.5769
X0.8995Y-0.8405
X0.8995Y-1.1477
X0.8995Y-1.4113
X0.8995Y-1.6792
X0.8995Y-1.9428
X0.8995Y-2.2501
X0.8995Y-2.5137
X0.8995Y-2.7816
X0.8995Y-3.0452
X0.8995Y-3.3721
X0.8995Y-3.6357
X0.8995Y-3.9627
X0.8995Y-4.2263
X0.8995Y-4.5926
X0.8995Y-4.8562
X1.1871Y-0.5769
X1.1871Y-0.8405
X1.1871Y-1.1477
X1.1871Y-1.4113
X1.1871Y-1.6792
X1.1871Y-1.9428
X1.1871Y-2.2501
X1.1871Y-2.5137
X1.1871Y-2.7816
X1.1871Y-3.0452
X1.1871Y-3.3721
X1.1871Y-3.6357
X1.1871Y-3.9627
X1.1871Y-4.2263
X1.1871Y-4.5926
X1.1871Y-4.8562
X1.3189Y-0.5217
X1.3189Y-0.8957
X1.3189Y-1.0925
X1.3189Y-1.4665
X1.3189Y-1.624
X1.3189Y-1.998
X1.3189Y-2.1949
X1.3189Y-2.5689
X1.3189Y-2.7264
X1.3189Y-3.1004
X1.3189Y-3.3169
X1.3189Y-3.6909
X1.3189Y-3.9075
X1.3189Y-4.2815
X1.3189Y-4.5374
X1.3189Y-4.9114
X1.4507Y-0.5769
X1.4507Y-0.8405
X1.4507Y-1.1477
X1.4507Y-1.4113
X1.4507Y-1.6792
X1.4507Y-1.9428
X1.4507Y-2.2501
X1.4507Y-2.5137
X1.4507Y-2.7816
X1.4507Y-3.0452
X1.4507Y-3.3721
X1.4507Y-3.6357
X1.4507Y-3.9627
X1.4507Y-4.2263
X1.4507Y-4.5926
X1.4507Y-4.8562
X1.7383Y-0.5769
X1.7383Y-0.8405
X1.7383Y-1.1477
X1.7383Y-1.4113
X1.7383Y-1.6792
X1.7383Y-1.9428
X1.7383Y-2.2501
X1.7383Y-2.5137
X1.7383Y-2.7816
X1.7383Y-3.0452
X1.7383Y-3.3721
X1.7383Y-3.6357
X1.7383Y-3.9627
X1.7383Y-4.2263
X1.7383Y-4.5926
X1.7383Y-4.8562
X1.8701Y-0.5217
X1.8701Y-0.8957
X1.8701Y-1.0925
X1.8701Y-1.4665
X1.8701Y-1.624
X1.8701Y-1.998
X1.8701Y-2.1949
X1.8701Y-2.5689
X1.8701Y-2.7264
X1.8701Y-3.1004
X1.8701Y-3.3169
X1.8701Y-3.6909
X1.8701Y-3.9075
X1.8701Y-4.2815
X1.8701Y-4.5374
X1.8701Y-4.9114
X2.0019Y-0.5769
X2.0019Y-0.8405
X2.0019Y-1.1477
X2.0019Y-1.4113
X2.0019Y-1.6792
X2.0019Y-1.9428
X2.0019Y-2.2501
X2.0019Y-2.5137
X2.0019Y-2.7816
X2.0019Y-3.0452
X2.0019Y-3.3721
X2.0019Y-3.6357
X2.0019Y-3.9627
X2.0019Y-4.2263
X2.0019Y-4.5926
X2.0019Y-4.8562
X2.2895Y-0.5769
X2.2895Y-0.8405
X2.2895Y-1.1477
X2.2895Y-1.4113
X2.2895Y-1.6792
X2.2895Y-1.9428
X2.2895Y-2.2501
X2.2895Y-2.5137
X2.2895Y-2.7816
X2.2895Y-3.0452
X2.2895Y-3.3721
X2.2895Y-3.6357
X2.2895Y-3.9627
X2.2895Y-4.2263
X2.2895Y-4.5926
X2.2895Y-4.8562
X2.4213Y-0.5217
X2.4213Y-0.8957
X2.4213Y-1.0925
X2.4213Y-1.4665
X2.4213Y-1.624
X2.4213Y-1.998
X2.4213Y-2.1949
X2.4213Y-2.5689
X2.4213Y-2.7264
X2.4213Y-3.1004
X2.4213Y-3.3169
X2.4213Y-3.6909
X2.4213Y-3.9075
X2.4213Y-4.2815
X2.4213Y-4.5374
X2.4213Y-4.9114
X2.5531Y-0.5769
X2.5531Y-0.8405
X2.5531Y-1.1477
X2.5531Y-1.4113
X2.5531Y-1.6792
X2.5531Y-1.9428
X2.5531Y-2.2501
X2.5531Y-2.5137
X2.5531Y-2.7816
X2.5531Y-3.0452
X2.5531Y-3.3721
X2.5531Y-3.6357
X2.5531Y-3.9627
X2.5531Y-4.2263
X2.5531Y-4.5926
X2.5531Y-4.8562
X2.8406Y-0.5769
X2.8406Y-0.8405
X2.8406Y-1.1477
X2.8406Y-1.4113
X2.8406Y-1.6792
X2.8406Y-1.9428
X2.8406Y-2.2501
X2.8406Y-2.5137
X2.8406Y-2.7816
X2.8406Y-3.0452
X2.8406Y-3.3721
X2.8406Y-3.6357
X2.8406Y-3.9627
X2.8406Y-4.2263
X2.8406Y-4.5926
X2.8406Y-4.8562
X2.9724Y-0.5217
X2.9724Y-0.8957
X2.9724Y-1.0925
X2.9724Y-1.4665
X2.9724Y-1.624
X2.9724Y-1.998
X2.9724Y-2.1949
X2.9724Y-2.5689
X2.9724Y-2.7264
X2.9724Y-3.1004
X2.9724Y-3.3169
X2.9724Y-3.6909
X2.9724Y-3.9075
X2.9724Y-4.2815
X2.9724Y-4.5374
X2.9724Y-4.9114
X3.1042Y-0.5769
X3.1042Y-0.8405
X3.1042Y-1.1477
X3.1042Y-1.4113
X3.1042Y-1.6792
X3.1042Y-1.9428
X3.1042Y-2.2501
X3.1042Y-2.5137
X3.1042Y-2.7816
X3.1042Y-3.0452
X3.1042Y-3.3721
X3.1042Y-3.6357
X3.1042Y-3.9627
X3.1042Y-4.2263
X3.1042Y-4.5926
X3.1042Y-4.8562
X3.3918Y-0.5769
X3.3918Y-0.8405
X3.3918Y-1.1477
X3.3918Y-1.4113
X3.3918Y-1.6792
X3.3918Y-1.9428
X3.3918Y-2.2501
X3.3918Y-2.5137
X3.3918Y-2.7816
X3.3918Y-3.0452
X3.3918Y-3.3721
X3.3918Y-3.6357
X3.3918Y-3.9627
X3.3918Y-4.2263
X3.3918Y-4.5926
X3.3918Y-4.8562
X3.5236Y-0.5217
X3.5236Y-0.8957
X3.5236Y-1.0925
X3.5236Y-1.4665
X3.5236Y-1.624
X3.5236Y-1.998
X3.5236Y-2.1949
X3.5236Y-2.5689
X3.5236Y-2.7264
X3.5236Y-3.1004
X3.5236Y-3.3169
X3.5236Y-3.6909
X3.5236Y-3.9075
X3.5236Y-4.2815
X3.5236Y-4.5374
X3.5236Y-4.9114
X3.6554Y-0.5769
X3.6554Y-0.8405
X3.6554Y-1.1477
X3.6554Y-1.4113
X3.6554Y-1.6792
X3.6554Y-1.9428
X3.6554Y-2.2501
X3.6554Y-2.5137
X3.6554Y-2.7816
X3.6554Y-3.0452
X3.6554Y-3.3721
X3.6554Y-3.6357
X3.6554Y-3.9627
X3.6554Y-4.2263
X3.6554Y-4.5926
X3.6554Y-4.8562
X3.9627Y-0.5769
X3.9627Y-0.8405
X3.9627Y-1.1477
X3.9627Y-1.4113
X3.9627Y-1.6792
X3.9627Y-1.9428
X3.9627Y-2.2501
X3.9627Y-2.5137
X3.9627Y-2.7816
X3.9627Y-3.0452
X3.9627Y-3.3721
X3.9627Y-3.6357
X3.9627Y-3.9627
X3.9627Y-4.2263
X3.9627Y-4.5926
X3.9627Y-4.8562
X4.0945Y-0.5217
X4.0945Y-0.8957
X4.0945Y-1.0925
X4.0945Y-1.4665
X4.0945Y-1.624
X4.0945Y-1.998
X4.0945Y-2.1949
X4.0945Y-2.5689
X4.0945Y-2.7264
X4.0945Y-3.1004
X4.0945Y-3.3169
X4.0945Y-3.6909
X4.0945Y-3.9075
X4.0945Y-4.2815
X4.0945Y-4.5374
X4.0945Y-4.9114
X4.2263Y-0.5769
X4.2263Y-0.8405
X4.2263Y-1.1477
X4.2263Y-1.4113
X4.2263Y-1.6792
X4.2263Y-1.9428
X4.2263Y-2.2501
X4.2263Y-2.5137
X4.2263Y-2.7816
X4.2263Y-3.0452
X4.2263Y-3.3721
X4.2263Y-3.6357
X4.2263Y-3.9627
X4.2263Y-4.2263
X4.2263Y-4.5926
X4.2263Y-4.8562
T2
X2.1457Y-0.2756
X2.1654Y-5.1969
T0
M30
