%TF.GenerationSoftware,KiCad,Pcbnew,(5.99.0-10282-g296a9df530)*%
%TF.CreationDate,2021-08-12T07:58:26+00:00*%
%TF.ProjectId,sensorburner,73656e73-6f72-4627-9572-6e65722e6b69,rev?*%
%TF.SameCoordinates,Original*%
%TF.FileFunction,Soldermask,Bot*%
%TF.FilePolarity,Negative*%
%FSLAX46Y46*%
G04 Gerber Fmt 4.6, Leading zero omitted, Abs format (unit mm)*
G04 Created by KiCad (PCBNEW (5.99.0-10282-g296a9df530)) date 2021-08-12 07:58:26*
%MOMM*%
%LPD*%
G01*
G04 APERTURE LIST*
%ADD10C,1.524000*%
%ADD11C,10.160000*%
G04 APERTURE END LIST*
D10*
%TO.C,U45*%
X64847720Y-85652280D03*
X61500000Y-84250200D03*
X58152280Y-85652280D03*
X58152280Y-92347720D03*
X61500000Y-93749800D03*
X64847720Y-92347720D03*
%TD*%
%TO.C,U24*%
X107347720Y-42652280D03*
X104000000Y-41250200D03*
X100652280Y-42652280D03*
X100652280Y-49347720D03*
X104000000Y-50749800D03*
X107347720Y-49347720D03*
%TD*%
%TO.C,U23*%
X92847720Y-42652280D03*
X89500000Y-41250200D03*
X86152280Y-42652280D03*
X86152280Y-49347720D03*
X89500000Y-50749800D03*
X92847720Y-49347720D03*
%TD*%
%TO.C,U20*%
X50847720Y-42652280D03*
X47500000Y-41250200D03*
X44152280Y-42652280D03*
X44152280Y-49347720D03*
X47500000Y-50749800D03*
X50847720Y-49347720D03*
%TD*%
%TO.C,U28*%
X50847720Y-57152280D03*
X47500000Y-55750200D03*
X44152280Y-57152280D03*
X44152280Y-63847720D03*
X47500000Y-65249800D03*
X50847720Y-63847720D03*
%TD*%
D11*
%TO.C,REF\u002A\u002A*%
X54500000Y-7000000D03*
%TD*%
D10*
%TO.C,U8*%
X107347720Y-14652280D03*
X104000000Y-13250200D03*
X100652280Y-14652280D03*
X100652280Y-21347720D03*
X104000000Y-22749800D03*
X107347720Y-21347720D03*
%TD*%
%TO.C,U16*%
X107347720Y-29152280D03*
X104000000Y-27750200D03*
X100652280Y-29152280D03*
X100652280Y-35847720D03*
X104000000Y-37249800D03*
X107347720Y-35847720D03*
%TD*%
%TO.C,U59*%
X36847720Y-116652280D03*
X33500000Y-115250200D03*
X30152280Y-116652280D03*
X30152280Y-123347720D03*
X33500000Y-124749800D03*
X36847720Y-123347720D03*
%TD*%
%TO.C,U7*%
X92847720Y-14652280D03*
X89500000Y-13250200D03*
X86152280Y-14652280D03*
X86152280Y-21347720D03*
X89500000Y-22749800D03*
X92847720Y-21347720D03*
%TD*%
%TO.C,U53*%
X64847720Y-100652280D03*
X61500000Y-99250200D03*
X58152280Y-100652280D03*
X58152280Y-107347720D03*
X61500000Y-108749800D03*
X64847720Y-107347720D03*
%TD*%
%TO.C,U51*%
X36847720Y-100652280D03*
X33500000Y-99250200D03*
X30152280Y-100652280D03*
X30152280Y-107347720D03*
X33500000Y-108749800D03*
X36847720Y-107347720D03*
%TD*%
%TO.C,U62*%
X78847720Y-116652280D03*
X75500000Y-115250200D03*
X72152280Y-116652280D03*
X72152280Y-123347720D03*
X75500000Y-124749800D03*
X78847720Y-123347720D03*
%TD*%
%TO.C,U6*%
X78847720Y-14652280D03*
X75500000Y-13250200D03*
X72152280Y-14652280D03*
X72152280Y-21347720D03*
X75500000Y-22749800D03*
X78847720Y-21347720D03*
%TD*%
%TO.C,U17*%
X9347720Y-42652280D03*
X6000000Y-41250200D03*
X2652280Y-42652280D03*
X2652280Y-49347720D03*
X6000000Y-50749800D03*
X9347720Y-49347720D03*
%TD*%
%TO.C,U22*%
X78847720Y-42652280D03*
X75500000Y-41250200D03*
X72152280Y-42652280D03*
X72152280Y-49347720D03*
X75500000Y-50749800D03*
X78847720Y-49347720D03*
%TD*%
%TO.C,U61*%
X64847720Y-116652280D03*
X61500000Y-115250200D03*
X58152280Y-116652280D03*
X58152280Y-123347720D03*
X61500000Y-124749800D03*
X64847720Y-123347720D03*
%TD*%
%TO.C,U25*%
X9347720Y-57152280D03*
X6000000Y-55750200D03*
X2652280Y-57152280D03*
X2652280Y-63847720D03*
X6000000Y-65249800D03*
X9347720Y-63847720D03*
%TD*%
%TO.C,U63*%
X92847720Y-116652280D03*
X89500000Y-115250200D03*
X86152280Y-116652280D03*
X86152280Y-123347720D03*
X89500000Y-124749800D03*
X92847720Y-123347720D03*
%TD*%
%TO.C,U43*%
X36847720Y-85652280D03*
X33500000Y-84250200D03*
X30152280Y-85652280D03*
X30152280Y-92347720D03*
X33500000Y-93749800D03*
X36847720Y-92347720D03*
%TD*%
%TO.C,U49*%
X9347720Y-100652280D03*
X6000000Y-99250200D03*
X2652280Y-100652280D03*
X2652280Y-107347720D03*
X6000000Y-108749800D03*
X9347720Y-107347720D03*
%TD*%
%TO.C,U14*%
X78847720Y-29152280D03*
X75500000Y-27750200D03*
X72152280Y-29152280D03*
X72152280Y-35847720D03*
X75500000Y-37249800D03*
X78847720Y-35847720D03*
%TD*%
%TO.C,U44*%
X50847720Y-85652280D03*
X47500000Y-84250200D03*
X44152280Y-85652280D03*
X44152280Y-92347720D03*
X47500000Y-93749800D03*
X50847720Y-92347720D03*
%TD*%
%TO.C,U48*%
X107347720Y-85652280D03*
X104000000Y-84250200D03*
X100652280Y-85652280D03*
X100652280Y-92347720D03*
X104000000Y-93749800D03*
X107347720Y-92347720D03*
%TD*%
%TO.C,U30*%
X78847720Y-57152280D03*
X75500000Y-55750200D03*
X72152280Y-57152280D03*
X72152280Y-63847720D03*
X75500000Y-65249800D03*
X78847720Y-63847720D03*
%TD*%
%TO.C,U11*%
X36847720Y-29152280D03*
X33500000Y-27750200D03*
X30152280Y-29152280D03*
X30152280Y-35847720D03*
X33500000Y-37249800D03*
X36847720Y-35847720D03*
%TD*%
%TO.C,U46*%
X78847720Y-85652280D03*
X75500000Y-84250200D03*
X72152280Y-85652280D03*
X72152280Y-92347720D03*
X75500000Y-93749800D03*
X78847720Y-92347720D03*
%TD*%
%TO.C,U39*%
X92847720Y-70652280D03*
X89500000Y-69250200D03*
X86152280Y-70652280D03*
X86152280Y-77347720D03*
X89500000Y-78749800D03*
X92847720Y-77347720D03*
%TD*%
%TO.C,U42*%
X22847720Y-85652280D03*
X19500000Y-84250200D03*
X16152280Y-85652280D03*
X16152280Y-92347720D03*
X19500000Y-93749800D03*
X22847720Y-92347720D03*
%TD*%
%TO.C,U38*%
X78847720Y-70652280D03*
X75500000Y-69250200D03*
X72152280Y-70652280D03*
X72152280Y-77347720D03*
X75500000Y-78749800D03*
X78847720Y-77347720D03*
%TD*%
%TO.C,U58*%
X22847720Y-116652280D03*
X19500000Y-115250200D03*
X16152280Y-116652280D03*
X16152280Y-123347720D03*
X19500000Y-124749800D03*
X22847720Y-123347720D03*
%TD*%
%TO.C,U5*%
X64847720Y-14652280D03*
X61500000Y-13250200D03*
X58152280Y-14652280D03*
X58152280Y-21347720D03*
X61500000Y-22749800D03*
X64847720Y-21347720D03*
%TD*%
%TO.C,U50*%
X22847720Y-100652280D03*
X19500000Y-99250200D03*
X16152280Y-100652280D03*
X16152280Y-107347720D03*
X19500000Y-108749800D03*
X22847720Y-107347720D03*
%TD*%
%TO.C,U19*%
X36847720Y-42652280D03*
X33500000Y-41250200D03*
X30152280Y-42652280D03*
X30152280Y-49347720D03*
X33500000Y-50749800D03*
X36847720Y-49347720D03*
%TD*%
%TO.C,U21*%
X64847720Y-42652280D03*
X61500000Y-41250200D03*
X58152280Y-42652280D03*
X58152280Y-49347720D03*
X61500000Y-50749800D03*
X64847720Y-49347720D03*
%TD*%
%TO.C,U56*%
X107347720Y-100652280D03*
X104000000Y-99250200D03*
X100652280Y-100652280D03*
X100652280Y-107347720D03*
X104000000Y-108749800D03*
X107347720Y-107347720D03*
%TD*%
%TO.C,U35*%
X36847720Y-70652280D03*
X33500000Y-69250200D03*
X30152280Y-70652280D03*
X30152280Y-77347720D03*
X33500000Y-78749800D03*
X36847720Y-77347720D03*
%TD*%
%TO.C,U9*%
X9347720Y-29152280D03*
X6000000Y-27750200D03*
X2652280Y-29152280D03*
X2652280Y-35847720D03*
X6000000Y-37249800D03*
X9347720Y-35847720D03*
%TD*%
%TO.C,U57*%
X9347720Y-116652280D03*
X6000000Y-115250200D03*
X2652280Y-116652280D03*
X2652280Y-123347720D03*
X6000000Y-124749800D03*
X9347720Y-123347720D03*
%TD*%
%TO.C,U15*%
X92847720Y-29152280D03*
X89500000Y-27750200D03*
X86152280Y-29152280D03*
X86152280Y-35847720D03*
X89500000Y-37249800D03*
X92847720Y-35847720D03*
%TD*%
%TO.C,U54*%
X78847720Y-100652280D03*
X75500000Y-99250200D03*
X72152280Y-100652280D03*
X72152280Y-107347720D03*
X75500000Y-108749800D03*
X78847720Y-107347720D03*
%TD*%
%TO.C,U13*%
X64847720Y-29152280D03*
X61500000Y-27750200D03*
X58152280Y-29152280D03*
X58152280Y-35847720D03*
X61500000Y-37249800D03*
X64847720Y-35847720D03*
%TD*%
%TO.C,U52*%
X50847720Y-100652280D03*
X47500000Y-99250200D03*
X44152280Y-100652280D03*
X44152280Y-107347720D03*
X47500000Y-108749800D03*
X50847720Y-107347720D03*
%TD*%
%TO.C,U27*%
X36847720Y-57152280D03*
X33500000Y-55750200D03*
X30152280Y-57152280D03*
X30152280Y-63847720D03*
X33500000Y-65249800D03*
X36847720Y-63847720D03*
%TD*%
%TO.C,U55*%
X92847720Y-100652280D03*
X89500000Y-99250200D03*
X86152280Y-100652280D03*
X86152280Y-107347720D03*
X89500000Y-108749800D03*
X92847720Y-107347720D03*
%TD*%
%TO.C,U2*%
X22847720Y-14652280D03*
X19500000Y-13250200D03*
X16152280Y-14652280D03*
X16152280Y-21347720D03*
X19500000Y-22749800D03*
X22847720Y-21347720D03*
%TD*%
%TO.C,U33*%
X9347720Y-70652280D03*
X6000000Y-69250200D03*
X2652280Y-70652280D03*
X2652280Y-77347720D03*
X6000000Y-78749800D03*
X9347720Y-77347720D03*
%TD*%
%TO.C,U36*%
X50847720Y-70652280D03*
X47500000Y-69250200D03*
X44152280Y-70652280D03*
X44152280Y-77347720D03*
X47500000Y-78749800D03*
X50847720Y-77347720D03*
%TD*%
%TO.C,U40*%
X107347720Y-70652280D03*
X104000000Y-69250200D03*
X100652280Y-70652280D03*
X100652280Y-77347720D03*
X104000000Y-78749800D03*
X107347720Y-77347720D03*
%TD*%
%TO.C,U34*%
X22847720Y-70652280D03*
X19500000Y-69250200D03*
X16152280Y-70652280D03*
X16152280Y-77347720D03*
X19500000Y-78749800D03*
X22847720Y-77347720D03*
%TD*%
%TO.C,U41*%
X9347720Y-85652280D03*
X6000000Y-84250200D03*
X2652280Y-85652280D03*
X2652280Y-92347720D03*
X6000000Y-93749800D03*
X9347720Y-92347720D03*
%TD*%
%TO.C,U37*%
X64847720Y-70652280D03*
X61500000Y-69250200D03*
X58152280Y-70652280D03*
X58152280Y-77347720D03*
X61500000Y-78749800D03*
X64847720Y-77347720D03*
%TD*%
%TO.C,U31*%
X92847720Y-57152280D03*
X89500000Y-55750200D03*
X86152280Y-57152280D03*
X86152280Y-63847720D03*
X89500000Y-65249800D03*
X92847720Y-63847720D03*
%TD*%
%TO.C,U64*%
X107347720Y-116652280D03*
X104000000Y-115250200D03*
X100652280Y-116652280D03*
X100652280Y-123347720D03*
X104000000Y-124749800D03*
X107347720Y-123347720D03*
%TD*%
%TO.C,U4*%
X50847720Y-14652280D03*
X47500000Y-13250200D03*
X44152280Y-14652280D03*
X44152280Y-21347720D03*
X47500000Y-22749800D03*
X50847720Y-21347720D03*
%TD*%
%TO.C,U1*%
X9347720Y-14652280D03*
X6000000Y-13250200D03*
X2652280Y-14652280D03*
X2652280Y-21347720D03*
X6000000Y-22749800D03*
X9347720Y-21347720D03*
%TD*%
%TO.C,U29*%
X64847720Y-57152280D03*
X61500000Y-55750200D03*
X58152280Y-57152280D03*
X58152280Y-63847720D03*
X61500000Y-65249800D03*
X64847720Y-63847720D03*
%TD*%
%TO.C,U26*%
X22847720Y-57152280D03*
X19500000Y-55750200D03*
X16152280Y-57152280D03*
X16152280Y-63847720D03*
X19500000Y-65249800D03*
X22847720Y-63847720D03*
%TD*%
%TO.C,U10*%
X22847720Y-29152280D03*
X19500000Y-27750200D03*
X16152280Y-29152280D03*
X16152280Y-35847720D03*
X19500000Y-37249800D03*
X22847720Y-35847720D03*
%TD*%
%TO.C,U60*%
X50847720Y-116652280D03*
X47500000Y-115250200D03*
X44152280Y-116652280D03*
X44152280Y-123347720D03*
X47500000Y-124749800D03*
X50847720Y-123347720D03*
%TD*%
%TO.C,U12*%
X50847720Y-29152280D03*
X47500000Y-27750200D03*
X44152280Y-29152280D03*
X44152280Y-35847720D03*
X47500000Y-37249800D03*
X50847720Y-35847720D03*
%TD*%
%TO.C,U3*%
X36847720Y-14652280D03*
X33500000Y-13250200D03*
X30152280Y-14652280D03*
X30152280Y-21347720D03*
X33500000Y-22749800D03*
X36847720Y-21347720D03*
%TD*%
%TO.C,U32*%
X107347720Y-57152280D03*
X104000000Y-55750200D03*
X100652280Y-57152280D03*
X100652280Y-63847720D03*
X104000000Y-65249800D03*
X107347720Y-63847720D03*
%TD*%
D11*
%TO.C,REF\u002A\u002A*%
X55000000Y-132000000D03*
%TD*%
D10*
%TO.C,U47*%
X92847720Y-85652280D03*
X89500000Y-84250200D03*
X86152280Y-85652280D03*
X86152280Y-92347720D03*
X89500000Y-93749800D03*
X92847720Y-92347720D03*
%TD*%
%TO.C,U18*%
X22847720Y-42652280D03*
X19500000Y-41250200D03*
X16152280Y-42652280D03*
X16152280Y-49347720D03*
X19500000Y-50749800D03*
X22847720Y-49347720D03*
%TD*%
M02*
