%TF.GenerationSoftware,KiCad,Pcbnew,(5.99.0-10282-g296a9df530)*%
%TF.CreationDate,2021-08-12T07:58:25+00:00*%
%TF.ProjectId,sensorburner,73656e73-6f72-4627-9572-6e65722e6b69,rev?*%
%TF.SameCoordinates,Original*%
%TF.FileFunction,Legend,Bot*%
%TF.FilePolarity,Positive*%
%FSLAX46Y46*%
G04 Gerber Fmt 4.6, Leading zero omitted, Abs format (unit mm)*
G04 Created by KiCad (PCBNEW (5.99.0-10282-g296a9df530)) date 2021-08-12 07:58:25*
%MOMM*%
%LPD*%
G01*
G04 APERTURE LIST*
%ADD10C,0.048260*%
G04 APERTURE END LIST*
D10*
%TO.C,U45*%
X67437745Y-89000000D02*
G75*
G03*
X67437745Y-89000000I-5937745J0D01*
G01*
%TO.C,U24*%
X109937745Y-46000000D02*
G75*
G03*
X109937745Y-46000000I-5937745J0D01*
G01*
%TO.C,U23*%
X95437745Y-46000000D02*
G75*
G03*
X95437745Y-46000000I-5937745J0D01*
G01*
%TO.C,U20*%
X53437745Y-46000000D02*
G75*
G03*
X53437745Y-46000000I-5937745J0D01*
G01*
%TO.C,U28*%
X53437745Y-60500000D02*
G75*
G03*
X53437745Y-60500000I-5937745J0D01*
G01*
%TO.C,U8*%
X109937745Y-18000000D02*
G75*
G03*
X109937745Y-18000000I-5937745J0D01*
G01*
%TO.C,U16*%
X109937745Y-32500000D02*
G75*
G03*
X109937745Y-32500000I-5937745J0D01*
G01*
%TO.C,U59*%
X39437745Y-120000000D02*
G75*
G03*
X39437745Y-120000000I-5937745J0D01*
G01*
%TO.C,U7*%
X95437745Y-18000000D02*
G75*
G03*
X95437745Y-18000000I-5937745J0D01*
G01*
%TO.C,U53*%
X67437745Y-104000000D02*
G75*
G03*
X67437745Y-104000000I-5937745J0D01*
G01*
%TO.C,U51*%
X39437745Y-104000000D02*
G75*
G03*
X39437745Y-104000000I-5937745J0D01*
G01*
%TO.C,U62*%
X81437745Y-120000000D02*
G75*
G03*
X81437745Y-120000000I-5937745J0D01*
G01*
%TO.C,U6*%
X81437745Y-18000000D02*
G75*
G03*
X81437745Y-18000000I-5937745J0D01*
G01*
%TO.C,U17*%
X11937745Y-46000000D02*
G75*
G03*
X11937745Y-46000000I-5937745J0D01*
G01*
%TO.C,U22*%
X81437745Y-46000000D02*
G75*
G03*
X81437745Y-46000000I-5937745J0D01*
G01*
%TO.C,U61*%
X67437745Y-120000000D02*
G75*
G03*
X67437745Y-120000000I-5937745J0D01*
G01*
%TO.C,U25*%
X11937745Y-60500000D02*
G75*
G03*
X11937745Y-60500000I-5937745J0D01*
G01*
%TO.C,U63*%
X95437745Y-120000000D02*
G75*
G03*
X95437745Y-120000000I-5937745J0D01*
G01*
%TO.C,U43*%
X39437745Y-89000000D02*
G75*
G03*
X39437745Y-89000000I-5937745J0D01*
G01*
%TO.C,U49*%
X11937745Y-104000000D02*
G75*
G03*
X11937745Y-104000000I-5937745J0D01*
G01*
%TO.C,U14*%
X81437745Y-32500000D02*
G75*
G03*
X81437745Y-32500000I-5937745J0D01*
G01*
%TO.C,U44*%
X53437745Y-89000000D02*
G75*
G03*
X53437745Y-89000000I-5937745J0D01*
G01*
%TO.C,U48*%
X109937745Y-89000000D02*
G75*
G03*
X109937745Y-89000000I-5937745J0D01*
G01*
%TO.C,U30*%
X81437745Y-60500000D02*
G75*
G03*
X81437745Y-60500000I-5937745J0D01*
G01*
%TO.C,U11*%
X39437745Y-32500000D02*
G75*
G03*
X39437745Y-32500000I-5937745J0D01*
G01*
%TO.C,U46*%
X81437745Y-89000000D02*
G75*
G03*
X81437745Y-89000000I-5937745J0D01*
G01*
%TO.C,U39*%
X95437745Y-74000000D02*
G75*
G03*
X95437745Y-74000000I-5937745J0D01*
G01*
%TO.C,U42*%
X25437745Y-89000000D02*
G75*
G03*
X25437745Y-89000000I-5937745J0D01*
G01*
%TO.C,U38*%
X81437745Y-74000000D02*
G75*
G03*
X81437745Y-74000000I-5937745J0D01*
G01*
%TO.C,U58*%
X25437745Y-120000000D02*
G75*
G03*
X25437745Y-120000000I-5937745J0D01*
G01*
%TO.C,U5*%
X67437745Y-18000000D02*
G75*
G03*
X67437745Y-18000000I-5937745J0D01*
G01*
%TO.C,U50*%
X25437745Y-104000000D02*
G75*
G03*
X25437745Y-104000000I-5937745J0D01*
G01*
%TO.C,U19*%
X39437745Y-46000000D02*
G75*
G03*
X39437745Y-46000000I-5937745J0D01*
G01*
%TO.C,U21*%
X67437745Y-46000000D02*
G75*
G03*
X67437745Y-46000000I-5937745J0D01*
G01*
%TO.C,U56*%
X109937745Y-104000000D02*
G75*
G03*
X109937745Y-104000000I-5937745J0D01*
G01*
%TO.C,U35*%
X39437745Y-74000000D02*
G75*
G03*
X39437745Y-74000000I-5937745J0D01*
G01*
%TO.C,U9*%
X11937745Y-32500000D02*
G75*
G03*
X11937745Y-32500000I-5937745J0D01*
G01*
%TO.C,U57*%
X11937745Y-120000000D02*
G75*
G03*
X11937745Y-120000000I-5937745J0D01*
G01*
%TO.C,U15*%
X95437745Y-32500000D02*
G75*
G03*
X95437745Y-32500000I-5937745J0D01*
G01*
%TO.C,U54*%
X81437745Y-104000000D02*
G75*
G03*
X81437745Y-104000000I-5937745J0D01*
G01*
%TO.C,U13*%
X67437745Y-32500000D02*
G75*
G03*
X67437745Y-32500000I-5937745J0D01*
G01*
%TO.C,U52*%
X53437745Y-104000000D02*
G75*
G03*
X53437745Y-104000000I-5937745J0D01*
G01*
%TO.C,U27*%
X39437745Y-60500000D02*
G75*
G03*
X39437745Y-60500000I-5937745J0D01*
G01*
%TO.C,U55*%
X95437745Y-104000000D02*
G75*
G03*
X95437745Y-104000000I-5937745J0D01*
G01*
%TO.C,U2*%
X25437745Y-18000000D02*
G75*
G03*
X25437745Y-18000000I-5937745J0D01*
G01*
%TO.C,U33*%
X11937745Y-74000000D02*
G75*
G03*
X11937745Y-74000000I-5937745J0D01*
G01*
%TO.C,U36*%
X53437745Y-74000000D02*
G75*
G03*
X53437745Y-74000000I-5937745J0D01*
G01*
%TO.C,U40*%
X109937745Y-74000000D02*
G75*
G03*
X109937745Y-74000000I-5937745J0D01*
G01*
%TO.C,U34*%
X25437745Y-74000000D02*
G75*
G03*
X25437745Y-74000000I-5937745J0D01*
G01*
%TO.C,U41*%
X11937745Y-89000000D02*
G75*
G03*
X11937745Y-89000000I-5937745J0D01*
G01*
%TO.C,U37*%
X67437745Y-74000000D02*
G75*
G03*
X67437745Y-74000000I-5937745J0D01*
G01*
%TO.C,U31*%
X95437745Y-60500000D02*
G75*
G03*
X95437745Y-60500000I-5937745J0D01*
G01*
%TO.C,U64*%
X109937745Y-120000000D02*
G75*
G03*
X109937745Y-120000000I-5937745J0D01*
G01*
%TO.C,U4*%
X53437745Y-18000000D02*
G75*
G03*
X53437745Y-18000000I-5937745J0D01*
G01*
%TO.C,U1*%
X11937745Y-18000000D02*
G75*
G03*
X11937745Y-18000000I-5937745J0D01*
G01*
%TO.C,U29*%
X67437745Y-60500000D02*
G75*
G03*
X67437745Y-60500000I-5937745J0D01*
G01*
%TO.C,U26*%
X25437745Y-60500000D02*
G75*
G03*
X25437745Y-60500000I-5937745J0D01*
G01*
%TO.C,U10*%
X25437745Y-32500000D02*
G75*
G03*
X25437745Y-32500000I-5937745J0D01*
G01*
%TO.C,U60*%
X53437745Y-120000000D02*
G75*
G03*
X53437745Y-120000000I-5937745J0D01*
G01*
%TO.C,U12*%
X53437745Y-32500000D02*
G75*
G03*
X53437745Y-32500000I-5937745J0D01*
G01*
%TO.C,U3*%
X39437745Y-18000000D02*
G75*
G03*
X39437745Y-18000000I-5937745J0D01*
G01*
%TO.C,U32*%
X109937745Y-60500000D02*
G75*
G03*
X109937745Y-60500000I-5937745J0D01*
G01*
%TO.C,U47*%
X95437745Y-89000000D02*
G75*
G03*
X95437745Y-89000000I-5937745J0D01*
G01*
%TO.C,U18*%
X25437745Y-46000000D02*
G75*
G03*
X25437745Y-46000000I-5937745J0D01*
G01*
%TD*%
M02*
